<svg id="Componente_1_1" data-name="Componente 1 – 1" xmlns="http://www.w3.org/2000/svg" xmlns:xlink="http://www.w3.org/1999/xlink" width="46.774" height="39.411" viewBox="0 0 46.774 39.411">
  <defs>
    <clipPath id="clip-path">
      <rect id="Rectángulo_57" data-name="Rectángulo 57" width="46.774" height="39.411" fill="#fff"/>
    </clipPath>
  </defs>
  <g id="Grupo_34" data-name="Grupo 34" clip-path="url(#clip-path)">
    <path id="Trazado_126" data-name="Trazado 126" d="M0,25.1c.122-.452.218-.913.372-1.354a4.219,4.219,0,0,1,2.306-2.628.571.571,0,0,0,.232-.446,16.831,16.831,0,0,1,.434-4.478A13.546,13.546,0,0,1,8.713,8.551,22.251,22.251,0,0,1,18.178,4.74c.493-.087.989-.151,1.519-.231.037-.224.076-.458.115-.693a3.383,3.383,0,0,1,6.676.022,2.13,2.13,0,0,0,.073.448c.04.1.143.236.236.252.851.145,1.707.268,2.591.4a1.143,1.143,0,0,0,.107-.168A7.25,7.25,0,0,1,36.12.053,22.589,22.589,0,0,1,40.757.2a7.417,7.417,0,0,1,6.013,7.106,7.673,7.673,0,0,1-4.249,7.213A25.488,25.488,0,0,1,43.18,17.2c.161,1.155.171,2.33.264,3.5.012.152.093.38.206.432a4.5,4.5,0,0,1,2.517,3.478,6.417,6.417,0,0,1-.422,4.06,3.816,3.816,0,0,1-3.762,2.451c-.589-.009-1.179,0-1.794,0a8.865,8.865,0,0,1-.672,3.32,8.231,8.231,0,0,1-7.646,4.974l-6.665-.016a3.648,3.648,0,0,1-.41-.01.684.684,0,0,1-.681-.71.7.7,0,0,1,.716-.681c.091-.008.183,0,.274,0,2.252,0,4.5,0,6.757.012A6.763,6.763,0,0,0,38.7,32.309a7.893,7.893,0,0,0,.087-1.319c.007-3.059,0-6.118,0-9.177a9.95,9.95,0,0,0-2.072-6.239.842.842,0,0,0-.722-.359,3.684,3.684,0,0,0-1.718.346c-.55.255-1.12.469-1.689.68a.794.794,0,0,1-1.172-.794c-.012-.624.006-1.249-.027-1.871a1.257,1.257,0,0,0-.23-.553c-.1-.152-.285-.249-.362-.406a1.57,1.57,0,0,0-1.658-.809c-4.261.029-8.528-.113-12.78.085a9.439,9.439,0,0,0-8.492,7.16A11.545,11.545,0,0,0,7.522,21.8c-.041,3.089-.021,6.179-.014,9.268a6.778,6.778,0,0,0,5.82,6.876A7.232,7.232,0,0,0,14.512,38c2.3,0,4.6-.006,6.894,0,.178,0,.416-.006.521.1a1.031,1.031,0,0,1,.363.656c-.017.211-.269.432-.467.585-.112.086-.322.059-.488.059-2.313.008-4.626.018-6.939.017a8.2,8.2,0,0,1-8.151-6.788c-.086-.476-.1-.963-.158-1.505-.5,0-1.014-.023-1.525,0C1.831,31.264.637,29.38.194,27.656c-.063-.245-.129-.489-.194-.733V25.1m32.777-10.46a1.579,1.579,0,0,0,.3-.084,6.976,6.976,0,0,1,3.881-.714c.728.044,1.461.021,2.191,0a7.214,7.214,0,0,0,1.269-.117A5.975,5.975,0,0,0,45.347,8.29a5.973,5.973,0,0,0-4.91-6.739,23.263,23.263,0,0,0-4.232-.1,6.157,6.157,0,0,0-3.872,10.761,1.211,1.211,0,0,1,.449,1.034c-.026.451-.006.905-.006,1.391M6.127,20.828c.029-.154.062-.271.072-.39a9.82,9.82,0,0,1,1.029-3.662A10.823,10.823,0,0,1,16.277,10.5c1.857-.173,3.739-.072,5.61-.1.178,0,.356,0,.576,0,0-.869.009-1.687-.013-2.5,0-.092-.172-.219-.288-.26A3.369,3.369,0,0,1,20.289,6.2a.5.5,0,0,0-.587-.283c-.733.125-1.474.216-2.2.37a19.249,19.249,0,0,0-9.185,4.378,12.086,12.086,0,0,0-4,10.168ZM6.1,22.253c-.657,0-1.28.014-1.9,0A2.261,2.261,0,0,0,2,23.523,5.043,5.043,0,0,0,2,28.455a2.017,2.017,0,0,0,1.532,1.186,24.7,24.7,0,0,0,2.566.021Zm34.1,7.465c.752,0,1.45.023,2.146-.006a2.241,2.241,0,0,0,1.99-1.321,5.1,5.1,0,0,0,0-4.814,2.147,2.147,0,0,0-1.718-1.288c-.794-.074-1.6-.016-2.423-.016ZM29.072,6.3c-.869-.136-1.661-.256-2.452-.387A.524.524,0,0,0,26,6.206a2.785,2.785,0,0,1-1.623,1.321c-.492.142-.571.4-.55.838.032.674.009,1.351.009,2.015h5.615A8.475,8.475,0,0,1,29.072,6.3m9.2,8.969c-.007.025-.019.045-.014.054a11.516,11.516,0,0,1,1.867,5.259.391.391,0,0,0,.271.263c.527.026,1.056.012,1.607.012a13.3,13.3,0,0,0-.563-5.026c-.258-.781-.257-.767-1.058-.694-.7.064-1.41.09-2.111.132M25.146,4.4a2,2,0,1,0-4,.005,2,2,0,0,0,4-.005" transform="translate(0 0)" fill="#fff"/>
    <path id="Trazado_127" data-name="Trazado 127" d="M95.024,163.048c-2.816,0-5.631.011-8.447,0a4.632,4.632,0,0,1-4.606-3.732,3.969,3.969,0,0,1-.083-.816c-.006-2.4-.068-4.811.015-7.213a4.546,4.546,0,0,1,4.686-4.535c2.237-.035,4.475-.01,6.712-.005.576,0,.871.258.864.712s-.307.691-.887.692c-2.253,0-4.505-.009-6.758.006a3.18,3.18,0,0,0-3.189,2.6,3.993,3.993,0,0,0-.056.817q-.006,3.333,0,6.666a3.2,3.2,0,0,0,3.347,3.418q8.4.04,16.8,0a3.2,3.2,0,0,0,3.345-3.422q0-3.356,0-6.712a3.2,3.2,0,0,0-3.343-3.365c-2.146-.01-4.292,0-6.438-.005a2.056,2.056,0,0,1-.583-.069.547.547,0,0,1-.426-.661,1.324,1.324,0,0,1,.452-.606c.107-.089.32-.067.485-.067,2.146,0,4.292-.013,6.438,0a4.639,4.639,0,0,1,4.721,3.762,3.827,3.827,0,0,1,.074.77c.006,2.4.061,4.811-.01,7.214a4.572,4.572,0,0,1-4.759,4.556c-2.785.009-5.571,0-8.356,0" transform="translate(-71.873 -128.829)" fill="#fff"/>
    <path id="Trazado_128" data-name="Trazado 128" d="M215.618,180.117a2.816,2.816,0,0,1,5.632,0,2.816,2.816,0,1,1-5.632,0m4.223-.022a1.436,1.436,0,0,0-1.436-1.411,1.478,1.478,0,0,0-1.413,1.452,1.434,1.434,0,0,0,1.456,1.39,1.384,1.384,0,0,0,1.393-1.432" transform="translate(-189.312 -155.676)" fill="#fff"/>
    <path id="Trazado_129" data-name="Trazado 129" d="M125.779,180.14A2.806,2.806,0,1,1,123,177.309a2.818,2.818,0,0,1,2.777,2.831m-2.79,1.388a1.427,1.427,0,0,0,1.423-1.421,1.473,1.473,0,0,0-1.441-1.423,1.437,1.437,0,0,0-1.406,1.44,1.39,1.39,0,0,0,1.423,1.4" transform="translate(-105.507 -155.677)" fill="#fff"/>
    <path id="Trazado_130" data-name="Trazado 130" d="M170.794,236.533a3.558,3.558,0,0,1-2.432-1,.7.7,0,0,1-.119-1.012.684.684,0,0,1,1.046-.014,2.074,2.074,0,0,0,2.99-.011.691.691,0,1,1,.93,1.017,3.534,3.534,0,0,1-2.415,1.016" transform="translate(-147.57 -205.694)" fill="#fff"/>
    <path id="Trazado_131" data-name="Trazado 131" d="M281.059,68.692c1.276,0,2.551,0,3.827,0,.541,0,.833.246.833.68s-.294.687-.828.687q-3.8,0-7.609,0c-.523,0-.846-.265-.849-.682s.317-.684.843-.685c1.261,0,2.521,0,3.782,0" transform="translate(-242.708 -60.311)" fill="#fff"/>
    <path id="Trazado_132" data-name="Trazado 132" d="M280.091,42.44c.942,0,1.883,0,2.825,0,.519,0,.794.238.8.662.009.441-.285.708-.81.709q-2.825.006-5.65,0a.725.725,0,0,1-.819-.671c-.015-.417.306-.7.826-.7.941-.006,1.883,0,2.825,0" transform="translate(-242.714 -37.261)" fill="#fff"/>
  </g>
</svg>
