<svg id="hand-holding-usd_1_" data-name="hand-holding-usd (1)" xmlns="http://www.w3.org/2000/svg" width="40.994" height="41" viewBox="0 0 40.994 41">
  <path id="hand-holding-usd_1_2" data-name="hand-holding-usd (1)" d="M39.326,15.016a5.153,5.153,0,0,0-3.707-1.332,5.216,5.216,0,0,0-3.57,1.674l-5.5,6.03a5.367,5.367,0,0,0-4.6-2.6H15.358V17.083h.649a4.481,4.481,0,0,0,.735-8.9l-5.62-.94a1.067,1.067,0,0,1,.171-2.118h4.066a1.713,1.713,0,0,1,1.708,1.708h3.417a5.14,5.14,0,0,0-5.125-5.125V0H11.941V1.708h-.649a4.481,4.481,0,0,0-.735,8.9l5.62.94a1.067,1.067,0,0,1-.171,2.118H11.941a1.713,1.713,0,0,1-1.708-1.708H6.816a5.14,5.14,0,0,0,5.125,5.125v1.708H5.125A5.14,5.14,0,0,0,0,23.917V35.875A5.14,5.14,0,0,0,5.125,41H22.977L39.7,22.225A5.174,5.174,0,0,0,39.326,15Zm-2.17,4.954L21.457,37.6H5.125a1.713,1.713,0,0,1-1.708-1.708V23.934a1.713,1.713,0,0,1,1.708-1.708H21.969a1.949,1.949,0,0,1,.273,3.878l-8.815,1.264.478,3.382,8.815-1.264a5.375,5.375,0,0,0,4.288-3.519l7.568-8.3a1.69,1.69,0,0,1,1.2-.564,1.833,1.833,0,0,1,1.247.444,1.724,1.724,0,0,1,.12,2.426Z" fill="#b58f67"/>
</svg>
