<svg id="Componente_3_1" data-name="Componente 3 – 1" xmlns="http://www.w3.org/2000/svg" xmlns:xlink="http://www.w3.org/1999/xlink" width="185.5" height="100.909" viewBox="0 0 185.5 100.909">
  <defs>
    <clipPath id="clip-path">
      <rect id="Rectángulo_1" data-name="Rectángulo 1" width="185.5" height="100.909" fill="none"/>
    </clipPath>
  </defs>
  <g id="Grupo_1" data-name="Grupo 1" clip-path="url(#clip-path)">
    <path id="Trazado_1" data-name="Trazado 1" d="M193.569,9.885a4.635,4.635,0,1,1-4.635-4.635,4.635,4.635,0,0,1,4.635,4.635" transform="translate(-78.47 -2.235)" fill="#b58f67"/>
    <path id="Trazado_2" data-name="Trazado 2" d="M152.56,26.99A11.709,11.709,0,1,0,164.269,38.7,11.709,11.709,0,0,0,152.56,26.99m8.584,13.322-.091.1-.1.205,0,.207.041.2.012.055-.014.1-.059.219-.021.171-.032.055-.014.184-.023.044-.043.011-.048-.068-.1-.027-.107.016-.125.016-.064.169-.045.038-.016.082-.082.123-.162.053-.009,0-1.091.084-.011.007.025.353-.183.041.144.162.212.1.073.1.052.052.117.08-.041.045.018.094-.038.068-.757.05-.014.011-.246.5,0,.03.087.1-.048.057-.015.111.02.071-.052.118-.3-.283L157.9,44.1l-.089-.048-.16-.144-.269-.2-.134-.071-.141-.055,0,0-.207-.073-.178,0-.294.038-.068.051-.048.068L156,43.78l-.164.1-.119,0-.078.025-.08-.03-.1-.011-.107-.043-.086-.057-.062-.016-.307-.021-.244-.137-.253-.066.011,0-.176-.121-.315-.08-.139-.007-.084-.03-.153-.111-.643-.235-.073-.066-.167-.068-.025-.055-.088-.032-.018-.048-.08-.091-.2-.018h-.021l-.246-.073-.084-.014-.169-.068-.05,0-.148-.046-.087-.043-.045-.1-.08-.068-.023-.059-.132-.109-.214-.1-.139-.075,0,0-.087-.052h-.043l-.127-.091-.041-.123-.1-.064-.162-.235-.016-.105,0-.191.045-.148.016-.087.089-.1.041-.021.009-.084-.016-.086-.1-.155-.123-.226-.018-.061,0-.13-.039-.164-.036-.084-.08-.091-.055-.032-.107-.141-.118-.114L149.7,39.1l-.048-.038-.116-.148-.048-.094-.075-.087-.192-.146-.016-.027L149,38.414l-.029-.039-.091-.075-.012-.043-.013-.057-.062-.046-.084-.175-.078-.071-.128-.084-.066.014-.189-.119-.091-.075-.071-.086.009-.153.094-.144.011-.021,0-.016-.128-.216-.084,0-.061-.025-.051-.066-.052-.155-.176-.071-.059-.064-.025-.053-.075-.084-.016-.107-.125-.132-.1-.08-.109-.082-.112-.212-.125-.057-.023-.082-.1-.121-.037-.064-.058-.079.384,2.059.029.032.05.111.055.011,0,.048.057.191.08.087.055.134.223.294.034.059.091.064.009.067.094-.007v.1l.068.073.007.094.111.059.03.068,0,.107-.064.121-.11.043-.109.1h-.041l-.084-.1-.032-.194-.073-.137-.148-.1-.262-.271-.237-.157-.082-.1-.029-.034-.073-.014-.021-.071-.061-.078h-.073l-.061-.016-.066-.009.071-.148.055-.18.018-.084.009-.176-.041-.169-.052-.038-.023-.084-.078-.034-.13-.1-.18-.16-.109-.1-.045-.039-.071,0-.025.044-.061-.007-.048-.055-.044-.1-.071-.037-.029.014-.06-.091-.091-.018-.112-.084,0-.11-.041-.045-.078-.037-.057-.1-.025.007-.078-.071-.007-.082.26.08.055.007.111-.061.048-.048.011-.016.053-.071v-.08l-.057-.258-.1-.182-.061-.028-.061-.1-.121-.178-.114-.041-.05-.071-.107-.059-.107-.112-.048-.132-.1-.346-.041-.246-.032-.061-.023-.134-.012-.043-.084-.15-.052-.146,0-.055-.038-.107-.044-.057-.034-.169-.039-.025-.038-.126,0-.057,1.31.028,1.852,1.032.032,0,1.094.055v0l.385.018.009-.285.914.03.121.13.062.08.212.173.111.114.1.093.367.579.059.1.018.073.1.078.16.127.144.039.134.079.123.071.112-.018.107-.13.061-.206.055-.1.1-.03.221-.016.255.011.069,0,.088.055.071.041.11.091.155.173.079.16.075.132.057.073.114.235.233.276.05.061.109.226.073.191.089.114.082.177.182.089.119.059.125.043.319.062.107.032.11.089.082-.071.084-.007-.007.164-.078.216-.068.127-.088.424-.021.319,0,.171-.011.3.023.18-.057.155.006.123.046.167,0,0,.018.1.091.16.064.066.119.1-.016.1-.041.105.055.116.089.15.032.1.071.08.221.212.141.182.066.207.052.134.075.053.044.064.068.034.025.078.078.08.19.05.171-.011.128.091.119.014,0,0,.146.205.066.023.187-.051v0l.187-.084.084-.03.057-.038.084-.025.21-.014.141-.021.089-.1L158,41.85l0,0,.246-.05.073,0,.294-.139.159-.1.13-.1.107-.141,0-.2.023-.066.1-.1-.02-.089,0-.221-.016-.08.016-.139,0-.036.045-.157.132-.1.183-.1.389-.089.242-.084.055-.055.094-.038h.1l.091-.046.1,0,.194.034.057,0,.016,0,.025.014h.148l.037-.021.157,0,.061,0,.022.148.007.132-.018.114Z" transform="translate(-59.97 -11.492)" fill="#2d302f"/>
    <path id="Trazado_3" data-name="Trazado 3" d="M125.914,5.571a4.635,4.635,0,1,1-6.033,2.561,4.635,4.635,0,0,1,6.033-2.561" transform="translate(-50.898 -2.228)" fill="#b58f67"/>
    <path id="Trazado_4" data-name="Trazado 4" d="M120.059,73.854a4.635,4.635,0,1,1,1.807,6.3,4.634,4.634,0,0,1-1.807-6.3" transform="translate(-50.87 -30.428)" fill="#b58f67"/>
    <path id="Trazado_5" data-name="Trazado 5" d="M193.61,80.654a4.635,4.635,0,1,1,4.553-4.715,4.635,4.635,0,0,1-4.553,4.715" transform="translate(-80.426 -30.394)" fill="#b58f67"/>
    <path id="Trazado_6" data-name="Trazado 6" d="M126.394,4.215a5.8,5.8,0,0,1-8.173,8.1,27.125,27.125,0,0,0-4.335,12.709h8.886a2.084,2.084,0,0,1,1.972-1.428h1.763a14.963,14.963,0,0,1,1.717-4.144L126.977,18.2a2.083,2.083,0,0,1,0-2.938l2.171-2.171a2.084,2.084,0,0,1,2.937,0l1.247,1.248a14.945,14.945,0,0,1,4.144-1.717V10.862a2.084,2.084,0,0,1,1.587-2.018V0a27.123,27.123,0,0,0-12.67,4.214" transform="translate(-48.489 0)" fill="#525751"/>
    <path id="Trazado_7" data-name="Trazado 7" d="M137.449,64.925V63.162a14.946,14.946,0,0,1-4.144-1.718l-1.247,1.248a2.084,2.084,0,0,1-2.937,0l-2.171-2.171a2.083,2.083,0,0,1,0-2.937l1.247-1.248a14.938,14.938,0,0,1-1.717-4.144h-1.764a2.082,2.082,0,0,1-2.075-2h-8.821a27.126,27.126,0,0,0,3.959,12.623A5.8,5.8,0,0,1,125.8,71.2a27.122,27.122,0,0,0,13.233,4.583V66.943a2.084,2.084,0,0,1-1.587-2.018" transform="translate(-48.461 -21.372)" fill="#525751"/>
    <path id="Trazado_8" data-name="Trazado 8" d="M184.985,11.419a5.8,5.8,0,1,1-8.571-7.82A27.118,27.118,0,0,0,164.749,0V8.838a2.086,2.086,0,0,1,1.608,2.024v1.764a14.927,14.927,0,0,1,4.144,1.717l1.248-1.248a2.084,2.084,0,0,1,2.937,0l2.171,2.171a2.084,2.084,0,0,1,0,2.938l-1.248,1.247a14.93,14.93,0,0,1,1.717,4.144h1.764a2.085,2.085,0,0,1,2.044,1.712h8.816a27.135,27.135,0,0,0-4.966-13.888" transform="translate(-70.145)" fill="#525751"/>
    <path id="Trazado_9" data-name="Trazado 9" d="M177.461,67.267a5.8,5.8,0,0,1,8.935-4.887,27.12,27.12,0,0,0,3.556-11.691h-8.816a2.085,2.085,0,0,1-2.045,1.712h-1.764a14.906,14.906,0,0,1-1.717,4.144l1.248,1.248a2.083,2.083,0,0,1,0,2.937L174.687,62.9a2.084,2.084,0,0,1-2.937,0L170.5,61.654a14.933,14.933,0,0,1-4.144,1.718v1.763a2.086,2.086,0,0,1-1.608,2.024V76a27.139,27.139,0,0,0,13.981-5.105,5.777,5.777,0,0,1-1.271-3.624" transform="translate(-70.146 -21.582)" fill="#525751"/>
    <path id="Trazado_10" data-name="Trazado 10" d="M27.389,121.552A5.079,5.079,0,0,1,23.7,120.2a5.244,5.244,0,0,1,0-7.134,5.086,5.086,0,0,1,3.687-1.351,5.056,5.056,0,0,1,3.151.983,4.345,4.345,0,0,1,1.646,2.639q.039.27-.243.269H30.288a.294.294,0,0,1-.3-.217,2.554,2.554,0,0,0-.957-1.335,2.774,2.774,0,0,0-1.633-.473,2.847,2.847,0,0,0-2.146.842,3.413,3.413,0,0,0,0,4.423,2.858,2.858,0,0,0,2.143.834,2.79,2.79,0,0,0,1.623-.47,2.508,2.508,0,0,0,.967-1.318.3.3,0,0,1,.3-.23h1.656c.188,0,.269.089.243.269a4.222,4.222,0,0,1-1.637,2.645,5.115,5.115,0,0,1-3.161.977" transform="translate(-9.496 -47.564)" fill="#525751"/>
    <path id="Trazado_11" data-name="Trazado 11" d="M46.881,121.562a5.123,5.123,0,0,1-3.7-1.374,5.1,5.1,0,0,1,0-7.083,5.683,5.683,0,0,1,7.4,0,5.093,5.093,0,0,1,0,7.083,5.118,5.118,0,0,1-3.694,1.374m-2.156-2.695a3.122,3.122,0,0,0,4.3,0,3.373,3.373,0,0,0,0-4.443,3.122,3.122,0,0,0-4.3,0,3.375,3.375,0,0,0,0,4.443" transform="translate(-17.775 -47.574)" fill="#525751"/>
    <path id="Trazado_12" data-name="Trazado 12" d="M62.528,121.5c-.18,0-.269-.086-.269-.257v-8.913q0-.256.269-.256h1.1a.363.363,0,0,1,.309.164l3.431,5.239,3.437-5.239a.363.363,0,0,1,.309-.164h1.13a.226.226,0,0,1,.256.256v8.913a.227.227,0,0,1-.256.257h-1.6a.227.227,0,0,1-.256-.257v-5.114l-2.327,3.622a.312.312,0,0,1-.309.158h-.73a.37.37,0,0,1-.309-.158L64.362,116.1v5.153a.227.227,0,0,1-.257.257Z" transform="translate(-26.508 -47.72)" fill="#525751"/>
    <path id="Trazado_13" data-name="Trazado 13" d="M82.591,121.5a.227.227,0,0,1-.257-.257v-1.275a.226.226,0,0,1,.257-.256h1.335v-5.843H82.591a.227.227,0,0,1-.257-.257v-1.282a.227.227,0,0,1,.257-.256h4.779c.179,0,.269.085.269.256v1.282c0,.171-.09.257-.269.257H86.041v5.843h1.328c.179,0,.269.084.269.256v1.275c0,.171-.09.257-.269.257Z" transform="translate(-35.055 -47.72)" fill="#525751"/>
    <path id="Trazado_14" data-name="Trazado 14" d="M97.519,121.552a5.065,5.065,0,0,1-2.925-.8,3.013,3.013,0,0,1-1.367-2.136c-.026-.18.055-.269.243-.269h1.6a.287.287,0,0,1,.283.217,1.57,1.57,0,0,0,.759.943,2.836,2.836,0,0,0,1.463.352,2.135,2.135,0,0,0,1.177-.283.876.876,0,0,0,.434-.769.828.828,0,0,0-.308-.67,1.973,1.973,0,0,0-.8-.378q-.488-.122-1.09-.217a9.643,9.643,0,0,1-1.2-.27,5.03,5.03,0,0,1-1.088-.451,2.1,2.1,0,0,1-.8-.833,2.744,2.744,0,0,1-.312-1.355,2.539,2.539,0,0,1,1.045-2.113,4.347,4.347,0,0,1,2.728-.805,4.785,4.785,0,0,1,2.692.733,2.884,2.884,0,0,1,1.331,1.968c.043.172-.038.256-.244.256H99.53a.319.319,0,0,1-.3-.2,1.343,1.343,0,0,0-.6-.805,2.146,2.146,0,0,0-1.144-.279,2.006,2.006,0,0,0-1.157.3.938.938,0,0,0-.44.814.909.909,0,0,0,.408.786,2.476,2.476,0,0,0,1.028.388q.621.1,1.334.269a10.092,10.092,0,0,1,1.331.4,2.217,2.217,0,0,1,1.028.814,2.475,2.475,0,0,1,.411,1.466,2.521,2.521,0,0,1-1.071,2.122,4.6,4.6,0,0,1-2.833.8" transform="translate(-39.692 -47.564)" fill="#525751"/>
    <path id="Trazado_15" data-name="Trazado 15" d="M109.671,121.5a.227.227,0,0,1-.257-.257v-1.275a.226.226,0,0,1,.257-.256h1.335v-5.843h-1.335a.227.227,0,0,1-.257-.257v-1.282a.227.227,0,0,1,.257-.256h4.779c.179,0,.269.085.269.256v1.282c0,.171-.09.257-.269.257h-1.328v5.843h1.328c.179,0,.269.084.269.256v1.275c0,.171-.09.257-.269.257Z" transform="translate(-46.585 -47.72)" fill="#525751"/>
    <path id="Trazado_16" data-name="Trazado 16" d="M125.559,119.433a5.123,5.123,0,0,1-3.7-1.374,5.1,5.1,0,0,1,0-7.083,5.682,5.682,0,0,1,7.4,0,5.091,5.091,0,0,1,0,7.083,5.115,5.115,0,0,1-3.693,1.374m-2.156-2.695a3.122,3.122,0,0,0,4.3,0,3.373,3.373,0,0,0,0-4.443,3.122,3.122,0,0,0-4.3,0,3.375,3.375,0,0,0,0,4.443m1.479-7.861a.22.22,0,0,1-.195-.088.2.2,0,0,1,.01-.22l.887-1.642a.308.308,0,0,1,.3-.191h1.584a.207.207,0,0,1,.2.082c.03.055.016.128-.046.22l-1.144,1.682a.313.313,0,0,1-.309.157Z" transform="translate(-51.274 -45.445)" fill="#525751"/>
    <path id="Trazado_17" data-name="Trazado 17" d="M147.6,112.336a.226.226,0,0,1,.257-.255h1.6a.219.219,0,0,1,.25.255v8.913a.224.224,0,0,1-.25.256h-1.255a.4.4,0,0,1-.309-.131l-4.844-5.647v5.522a.226.226,0,0,1-.256.256h-1.591c-.179,0-.269-.086-.269-.256v-8.913c0-.171.09-.255.269-.255h1.2a.406.406,0,0,1,.316.137l4.883,5.771Z" transform="translate(-60.007 -47.721)" fill="#525751"/>
    <path id="Trazado_18" data-name="Trazado 18" d="M171.945,112.336a.226.226,0,0,1,.257-.255h1.6a.219.219,0,0,1,.25.255v8.913a.224.224,0,0,1-.25.256H172.55a.4.4,0,0,1-.309-.131l-4.844-5.647v5.522a.226.226,0,0,1-.256.256H165.55c-.179,0-.269-.086-.269-.256v-8.913c0-.171.09-.255.269-.255h1.2a.407.407,0,0,1,.316.137l4.883,5.771Z" transform="translate(-70.372 -47.721)" fill="#525751"/>
    <path id="Trazado_19" data-name="Trazado 19" d="M182.689,121.506c-.206,0-.273-.1-.2-.3l4-8.94a.283.283,0,0,1,.283-.189h1.577a.292.292,0,0,1,.3.189l3.97,8.94a.23.23,0,0,1,0,.213.209.209,0,0,1-.191.083h-1.709a.292.292,0,0,1-.3-.191l-.742-1.735h-4.24l-.724,1.735a.291.291,0,0,1-.3.191Zm3.457-3.661h2.826l-1.426-3.352Z" transform="translate(-77.686 -47.721)" fill="#525751"/>
    <path id="Trazado_20" data-name="Trazado 20" d="M206.262,121.552a5.079,5.079,0,0,1-3.687-1.355,5.244,5.244,0,0,1,0-7.134,5.632,5.632,0,0,1,6.838-.369,4.345,4.345,0,0,1,1.646,2.639q.039.27-.243.269h-1.656a.294.294,0,0,1-.3-.217,2.554,2.554,0,0,0-.957-1.335,2.774,2.774,0,0,0-1.633-.473,2.847,2.847,0,0,0-2.146.842,3.413,3.413,0,0,0,0,4.423,2.858,2.858,0,0,0,2.143.834,2.79,2.79,0,0,0,1.623-.47,2.508,2.508,0,0,0,.967-1.318.3.3,0,0,1,.3-.23h1.656c.188,0,.269.089.243.269a4.222,4.222,0,0,1-1.637,2.645,5.114,5.114,0,0,1-3.161.977" transform="translate(-85.655 -47.564)" fill="#525751"/>
    <path id="Trazado_21" data-name="Trazado 21" d="M220.43,121.5a.228.228,0,0,1-.257-.257v-1.275a.227.227,0,0,1,.257-.256h1.335v-5.843H220.43a.228.228,0,0,1-.257-.257v-1.282a.227.227,0,0,1,.257-.256h4.779q.269,0,.269.256v1.282c0,.171-.09.257-.269.257h-1.328v5.843h1.328c.179,0,.269.084.269.256v1.275c0,.171-.09.257-.269.257Z" transform="translate(-93.743 -47.72)" fill="#525751"/>
    <path id="Trazado_22" data-name="Trazado 22" d="M236.319,121.562a5.125,5.125,0,0,1-3.7-1.374,5.105,5.105,0,0,1,0-7.083,5.683,5.683,0,0,1,7.4,0,5.093,5.093,0,0,1,0,7.083,5.118,5.118,0,0,1-3.694,1.374m-2.156-2.695a3.122,3.122,0,0,0,4.3,0,3.373,3.373,0,0,0,0-4.443,3.122,3.122,0,0,0-4.3,0,3.375,3.375,0,0,0,0,4.443" transform="translate(-98.432 -47.574)" fill="#525751"/>
    <path id="Trazado_23" data-name="Trazado 23" d="M258.361,112.336a.226.226,0,0,1,.257-.255h1.6a.219.219,0,0,1,.25.255v8.913a.224.224,0,0,1-.25.256h-1.255a.4.4,0,0,1-.309-.131l-4.844-5.647v5.522a.226.226,0,0,1-.256.256h-1.591c-.179,0-.269-.086-.269-.256v-8.913c0-.171.09-.255.269-.255h1.2a.407.407,0,0,1,.316.137l4.883,5.771Z" transform="translate(-107.165 -47.721)" fill="#525751"/>
    <path id="Trazado_24" data-name="Trazado 24" d="M269.1,121.506c-.206,0-.273-.1-.2-.3l4-8.94a.283.283,0,0,1,.283-.189h1.577a.292.292,0,0,1,.3.189l3.97,8.94a.23.23,0,0,1,0,.213.209.209,0,0,1-.191.083h-1.709a.292.292,0,0,1-.3-.191l-.742-1.735h-4.24l-.724,1.735a.291.291,0,0,1-.3.191Zm3.457-3.661h2.826l-1.426-3.352Z" transform="translate(-114.479 -47.721)" fill="#525751"/>
    <path id="Trazado_25" data-name="Trazado 25" d="M290.6,119.757h4.666q.257,0,.257.243v1.248a.227.227,0,0,1-.257.257h-6.513c-.179,0-.269-.086-.269-.257v-8.913c0-.171.09-.255.269-.255h1.591a.225.225,0,0,1,.256.255Z" transform="translate(-122.828 -47.721)" fill="#525751"/>
    <path id="Trazado_26" data-name="Trazado 26" d="M65.928,135.521a5.537,5.537,0,0,1,3.845,1.288,4.812,4.812,0,0,1,0,6.851,5.542,5.542,0,0,1-3.845,1.286H62.471c-.18,0-.27-.086-.27-.257v-8.913q0-.256.27-.256Zm-.145,7.624a3.428,3.428,0,0,0,2.376-.8,2.92,2.92,0,0,0,0-4.212,3.43,3.43,0,0,0-2.376-.8H64.318v5.817Z" transform="translate(-26.483 -57.701)" fill="#525751"/>
    <path id="Trazado_27" data-name="Trazado 27" d="M87.765,137.032c0,.162-.085.243-.257.243H82.665v2.136h4.213q.256,0,.256.243V140.9a.22.22,0,0,1-.256.249H82.665V143.2h4.844c.172,0,.257.081.257.243v1.249a.226.226,0,0,1-.257.256h-6.69q-.27,0-.269-.256v-8.913c0-.171.09-.255.269-.255h6.69a.226.226,0,0,1,.257.255Z" transform="translate(-34.295 -57.701)" fill="#525751"/>
    <path id="Trazado_28" data-name="Trazado 28" d="M106.227,144.993a5.079,5.079,0,0,1-3.687-1.355,5.244,5.244,0,0,1,0-7.134,5.632,5.632,0,0,1,6.838-.369,4.345,4.345,0,0,1,1.646,2.639q.039.27-.243.269h-1.656a.294.294,0,0,1-.3-.217,2.553,2.553,0,0,0-.957-1.335,2.774,2.774,0,0,0-1.633-.473,2.847,2.847,0,0,0-2.146.842,3.413,3.413,0,0,0,0,4.423,2.858,2.858,0,0,0,2.143.834,2.79,2.79,0,0,0,1.623-.47,2.508,2.508,0,0,0,.967-1.318.3.3,0,0,1,.3-.23h1.656c.188,0,.269.089.243.269a4.222,4.222,0,0,1-1.637,2.645,5.114,5.114,0,0,1-3.161.977" transform="translate(-43.063 -57.545)" fill="#525751"/>
    <path id="Trazado_29" data-name="Trazado 29" d="M128.225,137.032c0,.162-.085.243-.257.243h-4.844v2.136h4.213q.256,0,.256.243V140.9a.22.22,0,0,1-.256.249h-4.213V143.2h4.844c.172,0,.257.081.257.243v1.249a.226.226,0,0,1-.257.256h-6.69q-.27,0-.27-.256v-8.913c0-.171.09-.255.27-.255h6.69a.226.226,0,0,1,.257.255Z" transform="translate(-51.522 -57.701)" fill="#525751"/>
    <path id="Trazado_30" data-name="Trazado 30" d="M142.714,135.776a.226.226,0,0,1,.257-.255h1.6a.219.219,0,0,1,.25.255v8.913a.224.224,0,0,1-.25.256h-1.255a.4.4,0,0,1-.309-.131l-4.844-5.647v5.522a.226.226,0,0,1-.256.256h-1.591c-.179,0-.269-.086-.269-.256v-8.913c0-.171.09-.255.269-.255h1.2a.409.409,0,0,1,.316.137l4.883,5.771Z" transform="translate(-57.926 -57.701)" fill="#525751"/>
    <path id="Trazado_31" data-name="Trazado 31" d="M161.748,135.521a.226.226,0,0,1,.257.255v1.282a.227.227,0,0,1-.257.256H158.8v7.375a.227.227,0,0,1-.256.257h-1.6a.227.227,0,0,1-.257-.257v-7.375h-2.951a.226.226,0,0,1-.256-.256v-1.282a.225.225,0,0,1,.256-.255Z" transform="translate(-65.347 -57.701)" fill="#525751"/>
    <path id="Trazado_32" data-name="Trazado 32" d="M179.013,144.65a.188.188,0,0,1,.047.206q-.047.09-.21.09H176.91a.364.364,0,0,1-.309-.165l-2.314-2.892h-1.682v2.8a.227.227,0,0,1-.257.257h-1.59c-.179,0-.269-.086-.269-.257v-8.913c0-.171.09-.256.269-.256h3.931a4.25,4.25,0,0,1,2.786.854,2.854,2.854,0,0,1,1.039,2.327,2.8,2.8,0,0,1-1.991,2.879Zm-6.408-7.362v2.826h1.788a2.585,2.585,0,0,0,1.472-.371,1.191,1.191,0,0,0,.545-1.042,1.213,1.213,0,0,0-.523-1.029,2.3,2.3,0,0,0-1.39-.384Z" transform="translate(-72.589 -57.701)" fill="#525751"/>
    <path id="Trazado_33" data-name="Trazado 33" d="M192.093,145a5.123,5.123,0,0,1-3.7-1.374,5.1,5.1,0,0,1,0-7.083,5.683,5.683,0,0,1,7.4,0,5.093,5.093,0,0,1,0,7.083A5.118,5.118,0,0,1,192.093,145m-2.156-2.695a3.122,3.122,0,0,0,4.305,0,3.373,3.373,0,0,0,0-4.443,3.122,3.122,0,0,0-4.305,0,3.375,3.375,0,0,0,0,4.443" transform="translate(-79.602 -57.554)" fill="#525751"/>
    <path id="Trazado_34" data-name="Trazado 34" d="M211.22,144.993a5.064,5.064,0,0,1-2.925-.8,3.013,3.013,0,0,1-1.367-2.136c-.026-.18.055-.269.243-.269h1.6a.287.287,0,0,1,.283.217,1.568,1.568,0,0,0,.759.943,2.836,2.836,0,0,0,1.463.352,2.136,2.136,0,0,0,1.177-.283.876.876,0,0,0,.434-.769.827.827,0,0,0-.309-.67,1.966,1.966,0,0,0-.8-.378q-.489-.122-1.091-.217a9.659,9.659,0,0,1-1.2-.27,5.029,5.029,0,0,1-1.088-.451,2.1,2.1,0,0,1-.8-.833,2.744,2.744,0,0,1-.312-1.355,2.539,2.539,0,0,1,1.045-2.113,4.345,4.345,0,0,1,2.728-.805,4.783,4.783,0,0,1,2.691.733,2.88,2.88,0,0,1,1.331,1.968c.044.172-.037.256-.243.256h-1.61a.319.319,0,0,1-.3-.2,1.345,1.345,0,0,0-.6-.805,2.149,2.149,0,0,0-1.144-.279,2.006,2.006,0,0,0-1.157.3.939.939,0,0,0-.44.814.91.91,0,0,0,.408.786,2.476,2.476,0,0,0,1.028.388q.621.1,1.334.269a10.09,10.09,0,0,1,1.331.4,2.223,2.223,0,0,1,1.028.814,2.475,2.475,0,0,1,.411,1.466,2.523,2.523,0,0,1-1.071,2.122,4.6,4.6,0,0,1-2.833.8" transform="translate(-88.102 -57.545)" fill="#525751"/>
    <path id="Trazado_35" data-name="Trazado 35" d="M233.687,135.521a5.537,5.537,0,0,1,3.845,1.288,4.812,4.812,0,0,1,0,6.851,5.542,5.542,0,0,1-3.845,1.286H230.23c-.18,0-.27-.086-.27-.257v-8.913q0-.256.27-.256Zm-.145,7.624a3.427,3.427,0,0,0,2.376-.8,2.92,2.92,0,0,0,0-4.212,3.43,3.43,0,0,0-2.376-.8h-1.465v5.817Z" transform="translate(-97.91 -57.701)" fill="#525751"/>
    <path id="Trazado_36" data-name="Trazado 36" d="M255.524,137.032c0,.162-.085.243-.257.243h-4.844v2.136h4.213q.256,0,.256.243V140.9a.22.22,0,0,1-.256.249h-4.213V143.2h4.844c.172,0,.257.081.257.243v1.249a.226.226,0,0,1-.257.256h-6.69q-.27,0-.269-.256v-8.913c0-.171.09-.255.269-.255h6.69a.226.226,0,0,1,.257.255Z" transform="translate(-105.722 -57.701)" fill="#525751"/>
    <path id="Trazado_37" data-name="Trazado 37" d="M5.087,168.434A5.078,5.078,0,0,1,1.4,167.081a5.245,5.245,0,0,1,0-7.135,5.085,5.085,0,0,1,3.687-1.35,5.049,5.049,0,0,1,3.151.983,4.342,4.342,0,0,1,1.646,2.638q.039.27-.243.269H7.986a.292.292,0,0,1-.3-.217,2.546,2.546,0,0,0-.957-1.333,2.766,2.766,0,0,0-1.633-.473,2.846,2.846,0,0,0-2.146.841,3.413,3.413,0,0,0,0,4.423,2.858,2.858,0,0,0,2.143.834,2.79,2.79,0,0,0,1.623-.47,2.5,2.5,0,0,0,.967-1.318.3.3,0,0,1,.3-.23H9.641c.188,0,.269.09.243.269a4.225,4.225,0,0,1-1.637,2.646,5.121,5.121,0,0,1-3.161.976" transform="translate(0 -67.526)" fill="#525751"/>
    <path id="Trazado_38" data-name="Trazado 38" d="M24.579,168.444a5.123,5.123,0,0,1-3.7-1.374,5.1,5.1,0,0,1,0-7.081,5.128,5.128,0,0,1,3.707-1.37,5.125,5.125,0,0,1,3.694,1.37,5.091,5.091,0,0,1,0,7.081,5.118,5.118,0,0,1-3.694,1.374m-2.156-2.695a3.122,3.122,0,0,0,4.3,0,3.372,3.372,0,0,0,0-4.442,3.122,3.122,0,0,0-4.3,0,3.374,3.374,0,0,0,0,4.442" transform="translate(-8.279 -67.535)" fill="#525751"/>
    <path id="Trazado_39" data-name="Trazado 39" d="M46.621,159.218a.227.227,0,0,1,.257-.257h1.6a.221.221,0,0,1,.25.257v8.912a.223.223,0,0,1-.25.256H47.225a.4.4,0,0,1-.309-.131l-4.844-5.646v5.521a.226.226,0,0,1-.256.256H40.225c-.179,0-.269-.084-.269-.256v-8.912c0-.171.09-.257.269-.257h1.2a.408.408,0,0,1,.316.138l4.883,5.771Z" transform="translate(-17.012 -67.681)" fill="#525751"/>
    <path id="Trazado_40" data-name="Trazado 40" d="M62.991,168.434a5.078,5.078,0,0,1-3.687-1.353,5.245,5.245,0,0,1,0-7.135,5.634,5.634,0,0,1,6.838-.368,4.342,4.342,0,0,1,1.646,2.638q.039.27-.243.269H65.89a.292.292,0,0,1-.3-.217,2.546,2.546,0,0,0-.957-1.333A2.766,2.766,0,0,0,63,160.462a2.846,2.846,0,0,0-2.146.841,3.413,3.413,0,0,0,0,4.423,2.858,2.858,0,0,0,2.143.834,2.79,2.79,0,0,0,1.623-.47,2.5,2.5,0,0,0,.967-1.318.3.3,0,0,1,.3-.23h1.655c.188,0,.269.09.243.269a4.225,4.225,0,0,1-1.637,2.646,5.121,5.121,0,0,1-3.161.976" transform="translate(-24.654 -67.526)" fill="#525751"/>
    <path id="Trazado_41" data-name="Trazado 41" d="M77.159,168.386a.227.227,0,0,1-.257-.257v-1.275a.227.227,0,0,1,.257-.256h1.335v-5.842H77.159a.227.227,0,0,1-.257-.257v-1.282a.227.227,0,0,1,.257-.257h4.779c.179,0,.269.086.269.257V160.5c0,.171-.09.257-.269.257H80.609V166.6h1.328c.179,0,.269.086.269.256v1.275c0,.172-.09.257-.269.257Z" transform="translate(-32.743 -67.681)" fill="#525751"/>
    <path id="Trazado_42" data-name="Trazado 42" d="M90.454,166.637H95.12q.257,0,.257.243v1.248a.227.227,0,0,1-.257.257H88.607c-.179,0-.269-.085-.269-.257v-8.912c0-.171.09-.256.269-.256H90.2a.226.226,0,0,1,.257.256Z" transform="translate(-37.612 -67.681)" fill="#525751"/>
    <path id="Trazado_43" data-name="Trazado 43" d="M102.065,168.386a.227.227,0,0,1-.257-.257v-1.275a.227.227,0,0,1,.257-.256H103.4v-5.842h-1.335a.227.227,0,0,1-.257-.257v-1.282a.227.227,0,0,1,.257-.257h4.779c.179,0,.269.086.269.257V160.5c0,.171-.09.257-.269.257h-1.328V166.6h1.328c.179,0,.269.086.269.256v1.275c0,.172-.09.257-.269.257Z" transform="translate(-43.347 -67.681)" fill="#525751"/>
    <path id="Trazado_44" data-name="Trazado 44" d="M112.281,168.386q-.308,0-.2-.3l4-8.938a.282.282,0,0,1,.283-.191h1.577a.292.292,0,0,1,.3.191l3.97,8.938a.23.23,0,0,1,0,.213.209.209,0,0,1-.191.083H120.3a.292.292,0,0,1-.3-.191l-.742-1.735h-4.24l-.724,1.735a.291.291,0,0,1-.3.191Zm3.457-3.661h2.826l-1.426-3.351Z" transform="translate(-47.708 -67.681)" fill="#525751"/>
    <path id="Trazado_45" data-name="Trazado 45" d="M135.854,168.434a5.078,5.078,0,0,1-3.687-1.353,5.245,5.245,0,0,1,0-7.135,5.634,5.634,0,0,1,6.838-.368,4.342,4.342,0,0,1,1.646,2.638q.039.27-.243.269h-1.656a.292.292,0,0,1-.3-.217,2.546,2.546,0,0,0-.957-1.333,2.766,2.766,0,0,0-1.633-.473,2.846,2.846,0,0,0-2.146.841,3.414,3.414,0,0,0,0,4.423,2.858,2.858,0,0,0,2.143.834,2.79,2.79,0,0,0,1.623-.47,2.5,2.5,0,0,0,.967-1.318.3.3,0,0,1,.3-.23h1.656c.188,0,.269.09.243.269a4.225,4.225,0,0,1-1.637,2.646,5.121,5.121,0,0,1-3.161.976" transform="translate(-55.677 -67.526)" fill="#525751"/>
    <path id="Trazado_46" data-name="Trazado 46" d="M150.022,168.386a.227.227,0,0,1-.257-.257v-1.275a.227.227,0,0,1,.257-.256h1.334v-5.842h-1.334a.227.227,0,0,1-.257-.257v-1.282a.227.227,0,0,1,.257-.257H154.8c.179,0,.269.086.269.257V160.5c0,.171-.09.257-.269.257h-1.328V166.6H154.8c.179,0,.269.086.269.256v1.275c0,.172-.09.257-.269.257Z" transform="translate(-63.766 -67.681)" fill="#525751"/>
    <path id="Trazado_47" data-name="Trazado 47" d="M165.911,166.314a5.123,5.123,0,0,1-3.7-1.374,5.1,5.1,0,0,1,0-7.081,5.681,5.681,0,0,1,7.4,0,5.089,5.089,0,0,1,0,7.081,5.113,5.113,0,0,1-3.693,1.374m-2.156-2.695a3.122,3.122,0,0,0,4.3,0,3.372,3.372,0,0,0,0-4.442,3.122,3.122,0,0,0-4.3,0,3.372,3.372,0,0,0,0,4.442m1.479-7.86a.221.221,0,0,1-.195-.088.2.2,0,0,1,.01-.22l.887-1.643a.309.309,0,0,1,.3-.191h1.584a.207.207,0,0,1,.2.082c.03.055.016.129-.046.221l-1.144,1.682a.313.313,0,0,1-.309.157Z" transform="translate(-68.454 -65.405)" fill="#525751"/>
    <path id="Trazado_48" data-name="Trazado 48" d="M187.952,159.218a.227.227,0,0,1,.257-.257h1.6a.221.221,0,0,1,.25.257v8.912a.223.223,0,0,1-.25.256h-1.255a.4.4,0,0,1-.309-.131l-4.844-5.646v5.521a.226.226,0,0,1-.256.256h-1.591c-.179,0-.269-.084-.269-.256v-8.912c0-.171.09-.257.269-.257h1.2a.408.408,0,0,1,.316.138l4.883,5.771Z" transform="translate(-77.187 -67.681)" fill="#525751"/>
    <path id="Trazado_49" data-name="Trazado 49" d="M207.749,166.637h4.666q.257,0,.257.243v1.248a.227.227,0,0,1-.257.257H205.9c-.179,0-.269-.085-.269-.257v-8.912c0-.171.09-.256.269-.256h1.59a.226.226,0,0,1,.257.256Z" transform="translate(-87.553 -67.681)" fill="#525751"/>
    <path id="Trazado_50" data-name="Trazado 50" d="M219.012,168.386q-.308,0-.2-.3l4-8.938a.282.282,0,0,1,.283-.191h1.577a.292.292,0,0,1,.3.191l3.97,8.938a.23.23,0,0,1,0,.213.209.209,0,0,1-.191.083h-1.709a.292.292,0,0,1-.3-.191l-.742-1.735h-4.24l-.724,1.735a.291.291,0,0,1-.3.191Zm3.457-3.661H225.3l-1.426-3.351Z" transform="translate(-93.151 -67.681)" fill="#525751"/>
    <path id="Trazado_51" data-name="Trazado 51" d="M238.659,168.385c-.179,0-.269-.084-.269-.256v-8.912c0-.171.09-.256.269-.256H243.1a3.794,3.794,0,0,1,2.346.667,2.112,2.112,0,0,1,.881,1.772,2.283,2.283,0,0,1-.368,1.288,2.028,2.028,0,0,1-1.058.8v.053a2.26,2.26,0,0,1,1.886,2.314,2.163,2.163,0,0,1-.956,1.838,4.262,4.262,0,0,1-2.553.693Zm1.847-5.507h2.176a1.922,1.922,0,0,0,1.193-.342,1.058,1.058,0,0,0,.451-.88.884.884,0,0,0-.4-.756,1.936,1.936,0,0,0-1.137-.283h-2.287Zm0,3.838h2.583a2.04,2.04,0,0,0,1.187-.309.954.954,0,0,0,.443-.822.982.982,0,0,0-.4-.821,1.733,1.733,0,0,0-1.081-.31h-2.728Z" transform="translate(-101.5 -67.681)" fill="#525751"/>
    <path id="Trazado_52" data-name="Trazado 52" d="M260.234,168.444a5.123,5.123,0,0,1-3.7-1.374,5.1,5.1,0,0,1,0-7.081,5.683,5.683,0,0,1,7.4,0,5.092,5.092,0,0,1,0,7.081,5.118,5.118,0,0,1-3.694,1.374m-2.156-2.695a3.122,3.122,0,0,0,4.3,0,3.372,3.372,0,0,0,0-4.442,3.122,3.122,0,0,0-4.3,0,3.373,3.373,0,0,0,0,4.442" transform="translate(-108.614 -67.535)" fill="#525751"/>
    <path id="Trazado_53" data-name="Trazado 53" d="M284.135,168.09a.189.189,0,0,1,.047.207c-.031.059-.1.088-.21.088h-1.939a.364.364,0,0,1-.309-.165l-2.314-2.892h-1.682v2.8a.226.226,0,0,1-.256.257H275.88c-.179,0-.269-.085-.269-.257v-8.911c0-.171.09-.257.269-.257h3.931a4.256,4.256,0,0,1,2.786.854,2.854,2.854,0,0,1,1.039,2.327,2.8,2.8,0,0,1-1.991,2.879Zm-6.408-7.36v2.825h1.788a2.576,2.576,0,0,0,1.472-.371,1.19,1.19,0,0,0,.545-1.042,1.211,1.211,0,0,0-.523-1.028,2.288,2.288,0,0,0-1.39-.384Z" transform="translate(-117.347 -67.681)" fill="#525751"/>
    <path id="Trazado_54" data-name="Trazado 54" d="M291.407,168.386q-.308,0-.2-.3l4-8.938a.282.282,0,0,1,.283-.191h1.577a.292.292,0,0,1,.3.191l3.97,8.938a.23.23,0,0,1,0,.213.209.209,0,0,1-.191.083h-1.709a.292.292,0,0,1-.3-.191l-.742-1.735h-4.239l-.723,1.735a.292.292,0,0,1-.3.191Zm3.457-3.661h2.826l-1.427-3.351Z" transform="translate(-123.975 -67.681)" fill="#525751"/>
    <path id="Trazado_55" data-name="Trazado 55" d="M312.9,166.637h4.666q.257,0,.257.243v1.248a.227.227,0,0,1-.257.257h-6.513c-.179,0-.269-.085-.269-.257v-8.912c0-.171.09-.256.269-.256h1.59a.226.226,0,0,1,.257.256Z" transform="translate(-132.323 -67.681)" fill="#525751"/>
  </g>
</svg>
