<svg id="Componente_2_1" data-name="Componente 2 – 1" xmlns="http://www.w3.org/2000/svg" xmlns:xlink="http://www.w3.org/1999/xlink" width="275.798" height="60.141" viewBox="0 0 275.798 60.141">
  <defs>
    <clipPath id="clip-path">
      <rect id="Rectángulo_30" data-name="Rectángulo 30" width="275.798" height="60.141" fill="none"/>
    </clipPath>
  </defs>
  <g id="Grupo_10" data-name="Grupo 10" clip-path="url(#clip-path)">
    <path id="Trazado_60" data-name="Trazado 60" d="M36.45,7.075a5.123,5.123,0,1,1-5.123-5.123A5.124,5.124,0,0,1,36.45,7.075" transform="translate(18.527 1.381)" fill="#fff"/>
    <path id="Trazado_61" data-name="Trazado 61" d="M22.992,10.034A12.942,12.942,0,1,0,35.933,22.977,12.942,12.942,0,0,0,22.992,10.034m9.488,14.725-.1.106-.116.227,0,.229.044.217.014.06-.015.109-.067.241-.022.189-.036.06-.014.2-.026.048-.048.012-.053-.075-.106-.031-.119.019-.138.017-.07.186-.05.043-.019.09-.09.137-.179.058-.01,0L30.057,27l-.014.007.029.391-.2.046.159.178.234.111.08.109.058.058.128.087-.044.051.019.1-.043.077-.836.055-.014.012-.273.553,0,.032.1.113-.053.063-.017.123.022.079-.058.131L29,29.065l-.1-.125-.1-.053-.178-.157-.3-.222-.149-.079-.155-.06,0,.005-.229-.082-.2,0-.324.043-.077.055-.053.077-.347.119-.181.109-.131,0-.085.029-.089-.034L26.2,28.68l-.118-.048-.1-.063-.068-.017-.34-.022-.27-.152-.28-.073.014-.005-.195-.133-.348-.089-.154-.007-.092-.032-.169-.123-.71-.259-.08-.073-.184-.075-.027-.061-.1-.036-.02-.051-.087-.1-.217-.019h-.022l-.273-.082-.092-.014-.186-.077-.056-.005-.164-.05-.1-.048-.05-.114-.089-.075-.026-.065-.145-.121-.237-.106-.154-.084,0,.005-.1-.058H20.92l-.14-.1-.046-.135-.106-.072-.178-.259-.019-.114,0-.212.05-.164.019-.1.1-.114.046-.022.01-.094-.019-.1-.106-.171-.135-.249-.02-.068,0-.143-.043-.181-.039-.094-.089-.1-.06-.034-.119-.157-.131-.126-.056-.123-.053-.043-.13-.164-.053-.1-.082-.1-.212-.162-.019-.031-.225-.16-.034-.043-.1-.084-.012-.048-.015-.063-.068-.05-.092-.195-.085-.077-.142-.094-.073.015-.208-.131-.1-.084-.079-.1.01-.167.1-.159.014-.024.005-.017-.142-.239-.092,0-.068-.027-.056-.073-.058-.171-.193-.079-.067-.07-.027-.058-.084-.094-.017-.118-.138-.147-.108-.087-.121-.09-.125-.234-.138-.063-.024-.09-.111-.135-.041-.07-.065-.087.425,2.275.032.036.056.123.06.012-.005.053.063.212.089.1.06.149.248.326.038.065.1.07.01.073.1-.007v.113l.075.08.009.1.123.065.032.075-.005.119-.07.133-.121.048-.121.108h-.044l-.094-.109-.034-.215-.082-.15-.164-.109L17,22.86l-.263-.174-.09-.106-.032-.038-.08-.015-.022-.079-.068-.085h-.08l-.068-.017-.073-.01.079-.164.06-.2.02-.092.01-.195-.046-.186-.058-.043-.024-.094-.087-.038-.143-.108-.2-.178-.121-.106-.051-.043-.077-.005-.029.048-.067-.007-.053-.06-.048-.106-.079-.041-.032.015-.067-.1-.1-.02-.123-.092,0-.121-.046-.051-.085-.039-.063-.114-.027.009-.085-.079-.009-.09.287.087.061.009.123-.068.053-.053.012-.017.058-.079v-.089l-.063-.283-.109-.2-.068-.031-.068-.116-.133-.2-.126-.046-.056-.077-.118-.067-.118-.123-.053-.147-.109-.382-.044-.271-.036-.068-.026-.149-.012-.048-.094-.166-.056-.162,0-.06-.043-.119-.048-.061-.038-.188-.043-.027-.043-.138,0-.063,1.448.031,2.047,1.14.036.005,1.209.061v0l.425.02.01-.316,1.011.034.133.143.068.087.234.191.123.126.111.1.406.638.065.106.02.082.106.085.176.14.159.043.149.089.137.079.123-.02.119-.143.067-.227.061-.111.106-.032.244-.017.282.012.075.005.1.06.079.046.119.1.172.191.087.176.084.147.063.08.126.259L24,20.36l.056.067.119.251.082.21.1.126.09.2.2.1.131.065.138.048.353.068.118.036.121.1.09-.077.094-.009-.009.181-.085.239-.075.142-.1.468-.022.353,0,.189-.012.335.026.2-.063.172.007.135.051.184-.005.005.02.116.1.176.07.073.131.108-.019.109-.044.116.06.128.1.166.034.114.079.087.244.236.157.2.072.229.058.149.084.058.048.07.075.038.029.085.085.089.208.056.189-.014.14.1.131.015,0,.005.16.227.073.024.207-.055v0l.207-.094.092-.032.063-.043.094-.029.232-.014.155-.024.1-.113.15-.038,0,0,.271-.055.08,0,.324-.154.178-.113L30,26.025l.118-.155,0-.222.024-.073.114-.106-.022-.1,0-.244-.017-.087.017-.154,0-.041.05-.174.147-.111.2-.108.43-.1.266-.092.061-.061.1-.043H31.6l.1-.05.114,0,.213.039.063,0,.017,0,.027.015H32.3l.041-.022.174,0,.068,0,.024.162.009.147-.02.126Z" transform="translate(7.106 7.095)" fill="#fff"/>
    <path id="Trazado_62" data-name="Trazado 62" d="M9.171,2.319A5.123,5.123,0,1,1,2.5,5.149a5.121,5.121,0,0,1,6.668-2.83" transform="translate(1.505 1.376)" fill="#fff"/>
    <path id="Trazado_63" data-name="Trazado 63" d="M2.747,29.21a5.122,5.122,0,1,1,2,6.963,5.122,5.122,0,0,1-2-6.963" transform="translate(1.488 18.786)" fill="#fff"/>
    <path id="Trazado_64" data-name="Trazado 64" d="M33.126,36.785a5.123,5.123,0,1,1,5.032-5.212,5.123,5.123,0,0,1-5.032,5.212" transform="translate(19.735 18.765)" fill="#fff"/>
    <path id="Trazado_65" data-name="Trazado 65" d="M13.849,4.657a6.414,6.414,0,0,1-9.034,8.952A29.968,29.968,0,0,0,.026,27.655h9.82a2.305,2.305,0,0,1,2.18-1.579h1.948a16.558,16.558,0,0,1,1.9-4.58l-1.378-1.378a2.3,2.3,0,0,1,0-3.247l2.4-2.4a2.3,2.3,0,0,1,3.247,0l1.379,1.379a16.537,16.537,0,0,1,4.58-1.9V12a2.307,2.307,0,0,1,1.755-2.231V0a29.96,29.96,0,0,0-14,4.657" transform="translate(0.018 0.001)" fill="#fff"/>
    <path id="Trazado_66" data-name="Trazado 66" d="M26.117,34.942V32.992a16.537,16.537,0,0,1-4.58-1.9l-1.379,1.379a2.3,2.3,0,0,1-3.247,0l-2.4-2.4a2.3,2.3,0,0,1,0-3.247l1.378-1.378a16.526,16.526,0,0,1-1.9-4.582H12.043A2.3,2.3,0,0,1,9.75,18.662H0A29.992,29.992,0,0,0,4.377,32.613a6.414,6.414,0,0,1,8.87,9.267,29.968,29.968,0,0,0,14.626,5.065V37.173a2.307,2.307,0,0,1-1.755-2.231" transform="translate(0 13.195)" fill="#fff"/>
    <path id="Trazado_67" data-name="Trazado 67" d="M41.3,12.62A6.414,6.414,0,1,1,31.83,3.977,29.986,29.986,0,0,0,18.937,0V9.768A2.307,2.307,0,0,1,20.714,12v1.949a16.536,16.536,0,0,1,4.58,1.9l1.379-1.379a2.3,2.3,0,0,1,3.247,0l2.4,2.4a2.306,2.306,0,0,1,0,3.247L30.941,21.5a16.46,16.46,0,0,1,1.9,4.58h1.951a2.3,2.3,0,0,1,2.258,1.891H46.79A30,30,0,0,0,41.3,12.62" transform="translate(13.389 0.001)" fill="#fff"/>
    <path id="Trazado_68" data-name="Trazado 68" d="M32.985,37.168a6.414,6.414,0,0,1,9.875-5.4,29.983,29.983,0,0,0,3.931-12.92H37.047a2.3,2.3,0,0,1-2.26,1.891H32.838a16.537,16.537,0,0,1-1.9,4.58L32.319,26.7a2.3,2.3,0,0,1,0,3.247l-2.4,2.4a2.306,2.306,0,0,1-3.247,0l-1.378-1.379a16.537,16.537,0,0,1-4.58,1.9v1.949a2.306,2.306,0,0,1-1.779,2.236v9.768A29.986,29.986,0,0,0,34.39,41.173a6.382,6.382,0,0,1-1.4-4" transform="translate(13.388 13.326)" fill="#fff"/>
    <path id="Trazado_69" data-name="Trazado 69" d="M47.085,16.155a5.606,5.606,0,0,1-4.075-1.5,5.241,5.241,0,0,1-1.548-3.952A5.212,5.212,0,0,1,43.01,6.773a6.226,6.226,0,0,1,7.557-.406,4.794,4.794,0,0,1,1.82,2.916c.029.2-.06.3-.268.3h-1.83a.326.326,0,0,1-.328-.241A2.819,2.819,0,0,0,48.9,7.865,3.064,3.064,0,0,0,47.1,7.343a3.143,3.143,0,0,0-2.371.93,3.35,3.35,0,0,0-.9,2.432,3.358,3.358,0,0,0,.9,2.455,3.156,3.156,0,0,0,2.368.923,3.085,3.085,0,0,0,1.794-.519,2.766,2.766,0,0,0,1.069-1.456.327.327,0,0,1,.328-.254h1.83c.208,0,.3.1.268.3a4.66,4.66,0,0,1-1.808,2.924,5.661,5.661,0,0,1-3.494,1.079" transform="translate(29.314 3.734)" fill="#fff"/>
    <path id="Trazado_70" data-name="Trazado 70" d="M54.366,16.149a5.66,5.66,0,0,1-4.093-1.518,5.192,5.192,0,0,1-1.581-3.916A5.185,5.185,0,0,1,50.269,6.8a6.281,6.281,0,0,1,8.18,0,5.177,5.177,0,0,1,1.582,3.912,5.187,5.187,0,0,1-1.582,3.916,5.658,5.658,0,0,1-4.083,1.518M51.983,13.17a3.451,3.451,0,0,0,4.757,0,3.373,3.373,0,0,0,.923-2.455,3.38,3.38,0,0,0-.923-2.456,3.451,3.451,0,0,0-4.757,0,3.386,3.386,0,0,0-.922,2.456,3.379,3.379,0,0,0,.922,2.455" transform="translate(34.426 3.74)" fill="#fff"/>
    <path id="Trazado_71" data-name="Trazado 71" d="M56.616,15.833c-.2,0-.3-.094-.3-.283V5.7c0-.188.1-.282.3-.282h1.221a.4.4,0,0,1,.341.181l3.791,5.79,3.8-5.79a.4.4,0,0,1,.343-.181h1.248a.25.25,0,0,1,.283.282V15.55a.251.251,0,0,1-.283.283h-1.77a.25.25,0,0,1-.283-.283V9.9l-2.572,4a.348.348,0,0,1-.343.174h-.806a.408.408,0,0,1-.341-.174l-2.6-4.046V15.55a.25.25,0,0,1-.283.283Z" transform="translate(39.818 3.831)" fill="#fff"/>
    <path id="Trazado_72" data-name="Trazado 72" d="M64.065,15.833a.251.251,0,0,1-.283-.283V14.142a.251.251,0,0,1,.283-.283H65.54V7.4H64.065a.252.252,0,0,1-.283-.285V5.7a.25.25,0,0,1,.283-.282h5.281q.3,0,.3.282V7.115c0,.189-.1.285-.3.285H67.879v6.458h1.468c.2,0,.3.094.3.283V15.55c0,.189-.1.283-.3.283Z" transform="translate(45.095 3.831)" fill="#fff"/>
    <path id="Trazado_73" data-name="Trazado 73" d="M72.58,16.155a5.611,5.611,0,0,1-3.233-.886,3.338,3.338,0,0,1-1.511-2.361c-.029-.2.061-.3.27-.3h1.772a.317.317,0,0,1,.312.239,1.725,1.725,0,0,0,.838,1.043,3.127,3.127,0,0,0,1.617.389,2.358,2.358,0,0,0,1.3-.312.968.968,0,0,0,.48-.85.915.915,0,0,0-.343-.741,2.182,2.182,0,0,0-.881-.418c-.362-.089-.763-.169-1.207-.239a10.581,10.581,0,0,1-1.326-.3,5.67,5.67,0,0,1-1.2-.5A2.314,2.314,0,0,1,68.58,10a3.047,3.047,0,0,1-.345-1.5A2.807,2.807,0,0,1,69.391,6.17a4.8,4.8,0,0,1,3.015-.889,5.3,5.3,0,0,1,2.974.809,3.186,3.186,0,0,1,1.471,2.175c.048.189-.043.283-.268.283H74.8a.353.353,0,0,1-.335-.225,1.484,1.484,0,0,0-.669-.889,2.373,2.373,0,0,0-1.261-.309,2.217,2.217,0,0,0-1.279.335,1.039,1.039,0,0,0-.488.9,1,1,0,0,0,.451.867,2.711,2.711,0,0,0,1.137.428q.686.113,1.475.3A11.113,11.113,0,0,1,75.3,10.4a2.469,2.469,0,0,1,1.137.9,2.735,2.735,0,0,1,.454,1.62,2.794,2.794,0,0,1-1.185,2.347,5.1,5.1,0,0,1-3.131.886" transform="translate(47.957 3.734)" fill="#fff"/>
    <path id="Trazado_74" data-name="Trazado 74" d="M74.134,15.833a.251.251,0,0,1-.283-.283V14.142a.251.251,0,0,1,.283-.283h1.475V7.4H74.134a.252.252,0,0,1-.283-.285V5.7a.25.25,0,0,1,.283-.282h5.281q.3,0,.3.282V7.115c0,.189-.1.285-.3.285H77.948v6.458h1.468c.2,0,.3.094.3.283V15.55c0,.189-.1.283-.3.283Z" transform="translate(52.213 3.831)" fill="#fff"/>
    <path id="Trazado_75" data-name="Trazado 75" d="M83.617,17.464a5.662,5.662,0,0,1-4.093-1.519,5.188,5.188,0,0,1-1.579-3.916,5.178,5.178,0,0,1,1.576-3.911,6.281,6.281,0,0,1,8.18,0,5.172,5.172,0,0,1,1.584,3.911A5.186,5.186,0,0,1,87.7,15.945a5.659,5.659,0,0,1-4.083,1.519m-2.383-2.979a3.453,3.453,0,0,0,4.759,0,3.383,3.383,0,0,0,.922-2.456,3.382,3.382,0,0,0-.922-2.455,3.449,3.449,0,0,0-4.759,0,3.382,3.382,0,0,0-.922,2.455,3.383,3.383,0,0,0,.922,2.456M82.87,5.8a.246.246,0,0,1-.215-.1.218.218,0,0,1,.012-.244l.98-1.816a.342.342,0,0,1,.328-.21h1.75a.232.232,0,0,1,.218.09c.034.061.017.142-.051.244L84.628,5.623a.347.347,0,0,1-.341.174Z" transform="translate(55.108 2.425)" fill="#fff"/>
    <path id="Trazado_76" data-name="Trazado 76" d="M92.936,5.7a.251.251,0,0,1,.283-.283h1.772a.244.244,0,0,1,.277.283v9.851a.248.248,0,0,1-.277.283H93.6a.442.442,0,0,1-.341-.145L87.909,9.448v6.1a.251.251,0,0,1-.283.283H85.867c-.2,0-.3-.1-.3-.283V5.7c0-.188.1-.283.3-.283H87.19a.449.449,0,0,1,.348.154l5.4,6.377Z" transform="translate(60.499 3.83)" fill="#fff"/>
    <path id="Trazado_77" data-name="Trazado 77" d="M101.988,5.7a.251.251,0,0,1,.283-.283h1.772a.244.244,0,0,1,.277.283v9.851a.248.248,0,0,1-.277.283h-1.388a.436.436,0,0,1-.34-.145L96.961,9.448v6.1a.251.251,0,0,1-.283.283H94.919c-.2,0-.3-.1-.3-.283V5.7c0-.188.1-.283.3-.283h1.323a.449.449,0,0,1,.348.154l5.4,6.377Z" transform="translate(66.899 3.83)" fill="#fff"/>
    <path id="Trazado_78" data-name="Trazado 78" d="M101.264,15.832c-.229,0-.3-.108-.225-.326l4.416-9.88a.313.313,0,0,1,.312-.21h1.745a.323.323,0,0,1,.326.21l4.387,9.88a.247.247,0,0,1,0,.236.227.227,0,0,1-.21.09h-1.89a.321.321,0,0,1-.326-.21l-.821-1.919h-4.686l-.8,1.919a.321.321,0,0,1-.326.21Zm3.82-4.046h3.124l-1.577-3.7Z" transform="translate(71.414 3.83)" fill="#fff"/>
    <path id="Trazado_79" data-name="Trazado 79" d="M113.59,16.155a5.606,5.606,0,0,1-4.075-1.5,5.241,5.241,0,0,1-1.548-3.952,5.212,5.212,0,0,1,1.548-3.933,6.226,6.226,0,0,1,7.557-.406,4.793,4.793,0,0,1,1.82,2.916c.029.2-.06.3-.268.3h-1.83a.326.326,0,0,1-.328-.241,2.82,2.82,0,0,0-1.057-1.475,3.064,3.064,0,0,0-1.806-.522,3.143,3.143,0,0,0-2.371.93,3.35,3.35,0,0,0-.9,2.432,3.358,3.358,0,0,0,.9,2.455,3.156,3.156,0,0,0,2.368.923,3.085,3.085,0,0,0,1.794-.519,2.766,2.766,0,0,0,1.069-1.456.327.327,0,0,1,.328-.254h1.83c.208,0,.3.1.268.3a4.66,4.66,0,0,1-1.808,2.924,5.661,5.661,0,0,1-3.494,1.079" transform="translate(76.334 3.734)" fill="#fff"/>
    <path id="Trazado_80" data-name="Trazado 80" d="M115.314,15.833a.251.251,0,0,1-.283-.283V14.142a.251.251,0,0,1,.283-.283h1.475V7.4h-1.475a.252.252,0,0,1-.283-.285V5.7a.25.25,0,0,1,.283-.282H120.6q.3,0,.3.282V7.115c0,.189-.1.285-.3.285h-1.468v6.458H120.6c.2,0,.3.094.3.283V15.55c0,.189-.1.283-.3.283Z" transform="translate(81.328 3.831)" fill="#fff"/>
    <path id="Trazado_81" data-name="Trazado 81" d="M124.8,16.149a5.66,5.66,0,0,1-4.093-1.518,5.192,5.192,0,0,1-1.581-3.916A5.185,5.185,0,0,1,120.7,6.8a6.281,6.281,0,0,1,8.18,0,5.177,5.177,0,0,1,1.582,3.912,5.187,5.187,0,0,1-1.582,3.916,5.658,5.658,0,0,1-4.083,1.518m-2.383-2.979a3.451,3.451,0,0,0,4.757,0,3.373,3.373,0,0,0,.923-2.455,3.38,3.38,0,0,0-.923-2.456,3.451,3.451,0,0,0-4.757,0,3.386,3.386,0,0,0-.922,2.456,3.379,3.379,0,0,0,.922,2.455" transform="translate(84.222 3.74)" fill="#fff"/>
    <path id="Trazado_82" data-name="Trazado 82" d="M134.117,5.7a.251.251,0,0,1,.283-.283h1.772a.244.244,0,0,1,.277.283v9.851a.248.248,0,0,1-.277.283h-1.388a.442.442,0,0,1-.341-.145L129.09,9.448v6.1a.251.251,0,0,1-.283.283h-1.758c-.2,0-.3-.1-.3-.283V5.7c0-.188.1-.283.3-.283h1.323a.449.449,0,0,1,.348.154l5.4,6.377Z" transform="translate(89.614 3.83)" fill="#fff"/>
    <path id="Trazado_83" data-name="Trazado 83" d="M133.393,15.832c-.229,0-.3-.108-.225-.326l4.416-9.88a.313.313,0,0,1,.312-.21h1.745a.323.323,0,0,1,.326.21l4.387,9.88a.247.247,0,0,1,0,.236.227.227,0,0,1-.21.09h-1.89a.321.321,0,0,1-.326-.21l-.821-1.919h-4.686l-.8,1.919a.321.321,0,0,1-.326.21Zm3.82-4.046h3.124l-1.577-3.7Z" transform="translate(94.13 3.83)" fill="#fff"/>
    <path id="Trazado_84" data-name="Trazado 84" d="M142.767,13.9h5.157c.189,0,.283.09.283.27V15.55a.25.25,0,0,1-.283.283h-7.2c-.2,0-.3-.094-.3-.283V5.7q0-.282.3-.282h1.758a.249.249,0,0,1,.283.282Z" transform="translate(99.284 3.831)" fill="#fff"/>
    <path id="Trazado_85" data-name="Trazado 85" d="M45.739,14.132a6.115,6.115,0,0,1,4.249,1.424,4.841,4.841,0,0,1,1.584,3.788,4.831,4.831,0,0,1-1.584,3.784,6.122,6.122,0,0,1-4.249,1.42H41.917c-.2,0-.3-.094-.3-.283V14.414q0-.282.3-.282Zm-.16,8.426a3.79,3.79,0,0,0,2.625-.886,2.971,2.971,0,0,0,.993-2.328,2.971,2.971,0,0,0-.993-2.328,3.79,3.79,0,0,0-2.625-.886h-1.62v6.429Z" transform="translate(29.426 9.992)" fill="#fff"/>
    <path id="Trazado_86" data-name="Trazado 86" d="M56.418,15.8c0,.179-.094.27-.283.27H50.781v2.359h4.657c.188,0,.283.09.283.27v1.372a.244.244,0,0,1-.283.277H50.781v2.267h5.353c.189,0,.283.089.283.268v1.379a.251.251,0,0,1-.283.285H48.74c-.2,0-.3-.1-.3-.285V14.414c0-.188.1-.283.3-.283h7.395a.251.251,0,0,1,.283.283Z" transform="translate(34.248 9.991)" fill="#fff"/>
    <path id="Trazado_87" data-name="Trazado 87" d="M61.72,24.87a5.606,5.606,0,0,1-4.075-1.5A5.241,5.241,0,0,1,56.1,19.421a5.212,5.212,0,0,1,1.548-3.933,6.226,6.226,0,0,1,7.557-.406A4.794,4.794,0,0,1,67.022,18c.029.2-.06.3-.268.3h-1.83a.326.326,0,0,1-.328-.241A2.819,2.819,0,0,0,63.54,16.58a3.064,3.064,0,0,0-1.806-.522,3.143,3.143,0,0,0-2.371.93,3.35,3.35,0,0,0-.9,2.432,3.358,3.358,0,0,0,.9,2.455,3.156,3.156,0,0,0,2.368.923,3.085,3.085,0,0,0,1.794-.519A2.766,2.766,0,0,0,64.6,20.824a.327.327,0,0,1,.328-.254h1.83c.208,0,.3.1.268.3a4.66,4.66,0,0,1-1.808,2.924A5.661,5.661,0,0,1,61.72,24.87" transform="translate(39.661 9.896)" fill="#fff"/>
    <path id="Trazado_88" data-name="Trazado 88" d="M71.461,15.8c0,.179-.094.27-.283.27H65.824v2.359h4.657c.188,0,.283.09.283.27v1.372a.244.244,0,0,1-.283.277H65.824v2.267h5.353c.189,0,.283.089.283.268v1.379a.251.251,0,0,1-.283.285H63.783c-.2,0-.3-.1-.3-.285V14.414c0-.188.1-.283.3-.283h7.395a.251.251,0,0,1,.283.283Z" transform="translate(44.884 9.991)" fill="#fff"/>
    <path id="Trazado_89" data-name="Trazado 89" d="M76.442,14.414a.251.251,0,0,1,.283-.283H78.5a.244.244,0,0,1,.277.283v9.851a.248.248,0,0,1-.277.283H77.109a.442.442,0,0,1-.341-.145l-5.353-6.241v6.1a.251.251,0,0,1-.283.283H69.373c-.2,0-.3-.1-.3-.283V14.414c0-.188.1-.283.3-.283H70.7a.448.448,0,0,1,.348.154l5.4,6.377Z" transform="translate(48.837 9.991)" fill="#fff"/>
    <path id="Trazado_90" data-name="Trazado 90" d="M84.695,14.131a.25.25,0,0,1,.283.283v1.417a.251.251,0,0,1-.283.283H81.433v8.149a.25.25,0,0,1-.283.283H79.384a.251.251,0,0,1-.283-.283V16.115H75.839a.251.251,0,0,1-.282-.283V14.414a.25.25,0,0,1,.282-.283Z" transform="translate(53.42 9.991)" fill="#fff"/>
    <path id="Trazado_91" data-name="Trazado 91" d="M91.3,24.221a.207.207,0,0,1,.051.229c-.034.065-.111.1-.232.1H88.977a.4.4,0,0,1-.341-.181l-2.557-3.2H84.22v3.093a.25.25,0,0,1-.283.283H82.178c-.2,0-.3-.094-.3-.283V14.414c0-.188.1-.283.3-.283h4.344a4.694,4.694,0,0,1,3.079.944,3.151,3.151,0,0,1,1.149,2.572,3.1,3.1,0,0,1-2.2,3.182ZM84.22,16.086v3.124H86.2a2.842,2.842,0,0,0,1.627-.411,1.315,1.315,0,0,0,.6-1.151,1.343,1.343,0,0,0-.577-1.137,2.537,2.537,0,0,0-1.536-.425Z" transform="translate(57.891 9.991)" fill="#fff"/>
    <path id="Trazado_92" data-name="Trazado 92" d="M93.678,24.864a5.66,5.66,0,0,1-4.093-1.518A5.192,5.192,0,0,1,88,19.431a5.185,5.185,0,0,1,1.577-3.912,6.281,6.281,0,0,1,8.18,0,5.177,5.177,0,0,1,1.582,3.912,5.187,5.187,0,0,1-1.582,3.916,5.658,5.658,0,0,1-4.083,1.518M91.3,21.885a3.451,3.451,0,0,0,4.757,0,3.373,3.373,0,0,0,.923-2.455,3.38,3.38,0,0,0-.923-2.456,3.451,3.451,0,0,0-4.757,0,3.386,3.386,0,0,0-.922,2.456,3.379,3.379,0,0,0,.922,2.455" transform="translate(62.22 9.902)" fill="#fff"/>
    <path id="Trazado_93" data-name="Trazado 93" d="M100.176,24.87a5.611,5.611,0,0,1-3.233-.886,3.338,3.338,0,0,1-1.511-2.361c-.029-.2.061-.3.27-.3h1.772a.317.317,0,0,1,.312.239,1.725,1.725,0,0,0,.838,1.043,3.127,3.127,0,0,0,1.617.389,2.358,2.358,0,0,0,1.3-.312.968.968,0,0,0,.48-.85.918.918,0,0,0-.341-.741,2.2,2.2,0,0,0-.883-.418c-.362-.089-.763-.169-1.207-.239a10.489,10.489,0,0,1-1.325-.3,5.612,5.612,0,0,1-1.2-.5,2.325,2.325,0,0,1-.888-.922,3.047,3.047,0,0,1-.345-1.5,2.8,2.8,0,0,1,1.156-2.335A4.8,4.8,0,0,1,100,14a5.293,5.293,0,0,1,2.974.809,3.18,3.18,0,0,1,1.471,2.175c.048.189-.041.283-.268.283H102.4a.355.355,0,0,1-.335-.225,1.488,1.488,0,0,0-.667-.889,2.386,2.386,0,0,0-1.265-.309,2.215,2.215,0,0,0-1.277.335,1.039,1.039,0,0,0-.488.9,1,1,0,0,0,.451.867,2.711,2.711,0,0,0,1.137.428q.686.113,1.475.3a11.113,11.113,0,0,1,1.471.447,2.469,2.469,0,0,1,1.137.9,2.735,2.735,0,0,1,.454,1.62,2.794,2.794,0,0,1-1.185,2.347,5.1,5.1,0,0,1-3.131.886" transform="translate(67.468 9.896)" fill="#fff"/>
    <path id="Trazado_94" data-name="Trazado 94" d="M108.111,14.132a6.115,6.115,0,0,1,4.249,1.424,4.841,4.841,0,0,1,1.584,3.788,4.831,4.831,0,0,1-1.584,3.784,6.122,6.122,0,0,1-4.249,1.42h-3.822c-.2,0-.3-.094-.3-.283V14.414q0-.282.3-.282Zm-.16,8.426a3.8,3.8,0,0,0,2.627-.886,2.975,2.975,0,0,0,.992-2.328,2.975,2.975,0,0,0-.992-2.328,3.8,3.8,0,0,0-2.627-.886h-1.62v6.429Z" transform="translate(73.523 9.992)" fill="#fff"/>
    <path id="Trazado_95" data-name="Trazado 95" d="M118.79,15.8c0,.179-.094.27-.283.27h-5.353v2.359h4.657c.188,0,.283.09.283.27v1.372a.244.244,0,0,1-.283.277h-4.657v2.267h5.353c.189,0,.283.089.283.268v1.379a.251.251,0,0,1-.283.285h-7.395c-.2,0-.3-.1-.3-.285V14.414c0-.188.1-.283.3-.283h7.395a.251.251,0,0,1,.283.283Z" transform="translate(78.346 9.991)" fill="#fff"/>
    <path id="Trazado_96" data-name="Trazado 96" d="M47.085,33.585a5.606,5.606,0,0,1-4.075-1.5,5.241,5.241,0,0,1-1.548-3.952A5.212,5.212,0,0,1,43.01,24.2a6.226,6.226,0,0,1,7.557-.406,4.793,4.793,0,0,1,1.82,2.916c.029.2-.06.3-.268.3h-1.83a.326.326,0,0,1-.328-.241A2.819,2.819,0,0,0,48.9,25.3a3.064,3.064,0,0,0-1.806-.522,3.143,3.143,0,0,0-2.371.93,3.35,3.35,0,0,0-.9,2.432,3.358,3.358,0,0,0,.9,2.455,3.156,3.156,0,0,0,2.368.924A3.085,3.085,0,0,0,48.893,31a2.766,2.766,0,0,0,1.069-1.456.327.327,0,0,1,.328-.254h1.83c.208,0,.3.1.268.3a4.66,4.66,0,0,1-1.808,2.924,5.661,5.661,0,0,1-3.494,1.079" transform="translate(29.314 16.058)" fill="#fff"/>
    <path id="Trazado_97" data-name="Trazado 97" d="M54.366,33.579a5.66,5.66,0,0,1-4.093-1.518,5.192,5.192,0,0,1-1.581-3.916,5.185,5.185,0,0,1,1.577-3.912,6.281,6.281,0,0,1,8.18,0,5.177,5.177,0,0,1,1.582,3.912,5.187,5.187,0,0,1-1.582,3.916,5.658,5.658,0,0,1-4.083,1.518M51.983,30.6a3.451,3.451,0,0,0,4.757,0,3.726,3.726,0,0,0,0-4.911,3.451,3.451,0,0,0-4.757,0,3.732,3.732,0,0,0,0,4.911" transform="translate(34.426 16.063)" fill="#fff"/>
    <path id="Trazado_98" data-name="Trazado 98" d="M63.684,23.13a.251.251,0,0,1,.283-.283h1.772a.244.244,0,0,1,.277.283v9.851a.248.248,0,0,1-.277.283H64.351a.442.442,0,0,1-.341-.145l-5.353-6.241v6.1a.251.251,0,0,1-.283.283H56.615c-.2,0-.3-.1-.3-.283V23.13c0-.188.1-.283.3-.283h1.323a.449.449,0,0,1,.348.154l5.4,6.377Z" transform="translate(39.817 16.154)" fill="#fff"/>
    <path id="Trazado_99" data-name="Trazado 99" d="M68.614,33.585a5.606,5.606,0,0,1-4.075-1.5,5.241,5.241,0,0,1-1.548-3.952A5.212,5.212,0,0,1,64.539,24.2,6.226,6.226,0,0,1,72.1,23.8a4.793,4.793,0,0,1,1.82,2.916c.029.2-.06.3-.268.3h-1.83a.326.326,0,0,1-.328-.241A2.82,2.82,0,0,0,70.434,25.3a3.062,3.062,0,0,0-1.8-.522,3.144,3.144,0,0,0-2.373.93,3.35,3.35,0,0,0-.9,2.432,3.358,3.358,0,0,0,.9,2.455,3.158,3.158,0,0,0,2.369.924A3.083,3.083,0,0,0,70.422,31a2.766,2.766,0,0,0,1.069-1.456.327.327,0,0,1,.328-.254h1.83c.208,0,.3.1.268.3a4.66,4.66,0,0,1-1.808,2.924,5.661,5.661,0,0,1-3.494,1.079" transform="translate(44.535 16.058)" fill="#fff"/>
    <path id="Trazado_100" data-name="Trazado 100" d="M70.338,33.263a.251.251,0,0,1-.283-.283V31.572a.251.251,0,0,1,.283-.283h1.475V24.831H70.338a.252.252,0,0,1-.283-.285V23.129a.25.25,0,0,1,.283-.282H75.62q.3,0,.3.282v1.417c0,.189-.1.285-.3.285H74.152v6.458H75.62c.2,0,.3.094.3.283V32.98c0,.189-.1.283-.3.283Z" transform="translate(49.53 16.154)" fill="#fff"/>
    <path id="Trazado_101" data-name="Trazado 101" d="M76.645,31.331H81.8c.189,0,.283.09.283.27V32.98a.25.25,0,0,1-.283.283H74.6c-.2,0-.3-.094-.3-.283V23.129q0-.282.3-.282h1.758a.249.249,0,0,1,.283.282Z" transform="translate(52.535 16.154)" fill="#fff"/>
    <path id="Trazado_102" data-name="Trazado 102" d="M79.6,33.263a.251.251,0,0,1-.283-.283V31.572a.251.251,0,0,1,.283-.283h1.475V24.831H79.6a.252.252,0,0,1-.283-.285V23.129a.25.25,0,0,1,.283-.282h5.283c.2,0,.3.094.3.282v1.417a.257.257,0,0,1-.3.285H83.413v6.458h1.468c.2,0,.3.094.3.283V32.98c0,.189-.1.283-.3.283Z" transform="translate(56.076 16.154)" fill="#fff"/>
    <path id="Trazado_103" data-name="Trazado 103" d="M83.378,33.263c-.229,0-.3-.108-.225-.326l4.418-9.88a.31.31,0,0,1,.311-.21h1.743a.323.323,0,0,1,.328.21l4.387,9.88a.247.247,0,0,1,0,.236.223.223,0,0,1-.21.09H92.241a.322.322,0,0,1-.328-.21l-.821-1.919H86.408l-.8,1.919a.321.321,0,0,1-.326.21Zm3.82-4.046h3.124l-1.577-3.7Z" transform="translate(58.768 16.154)" fill="#fff"/>
    <path id="Trazado_104" data-name="Trazado 104" d="M95.7,33.585a5.606,5.606,0,0,1-4.075-1.5,5.241,5.241,0,0,1-1.548-3.952A5.212,5.212,0,0,1,91.629,24.2a6.226,6.226,0,0,1,7.557-.406,4.793,4.793,0,0,1,1.82,2.916c.029.2-.06.3-.268.3h-1.83a.326.326,0,0,1-.328-.241A2.819,2.819,0,0,0,97.524,25.3a3.064,3.064,0,0,0-1.806-.522,3.143,3.143,0,0,0-2.371.93,3.35,3.35,0,0,0-.9,2.432,3.358,3.358,0,0,0,.9,2.455,3.156,3.156,0,0,0,2.368.924A3.085,3.085,0,0,0,97.512,31a2.766,2.766,0,0,0,1.069-1.456.327.327,0,0,1,.328-.254h1.83c.208,0,.3.1.268.3A4.66,4.66,0,0,1,99.2,32.506,5.661,5.661,0,0,1,95.7,33.585" transform="translate(63.688 16.058)" fill="#fff"/>
    <path id="Trazado_105" data-name="Trazado 105" d="M97.428,33.263a.251.251,0,0,1-.283-.283V31.572a.251.251,0,0,1,.283-.283H98.9V24.831H97.428a.252.252,0,0,1-.283-.285V23.129a.25.25,0,0,1,.283-.282h5.281q.3,0,.3.282v1.417c0,.189-.1.285-.3.285h-1.468v6.458h1.468c.2,0,.3.094.3.283V32.98c0,.189-.1.283-.3.283Z" transform="translate(68.683 16.154)" fill="#fff"/>
    <path id="Trazado_106" data-name="Trazado 106" d="M106.911,34.9a5.662,5.662,0,0,1-4.093-1.519,5.188,5.188,0,0,1-1.579-3.916,5.178,5.178,0,0,1,1.576-3.911,6.281,6.281,0,0,1,8.18,0,5.172,5.172,0,0,1,1.584,3.911,5.186,5.186,0,0,1-1.584,3.916,5.659,5.659,0,0,1-4.083,1.519m-2.383-2.979a3.453,3.453,0,0,0,4.759,0,3.732,3.732,0,0,0,0-4.911,3.449,3.449,0,0,0-4.759,0,3.732,3.732,0,0,0,0,4.911m1.635-8.689a.246.246,0,0,1-.215-.1.218.218,0,0,1,.012-.244l.98-1.816a.342.342,0,0,1,.328-.21h1.75a.232.232,0,0,1,.219.09c.034.061.017.142-.051.244l-1.263,1.859a.347.347,0,0,1-.341.174Z" transform="translate(71.577 14.749)" fill="#fff"/>
    <path id="Trazado_107" data-name="Trazado 107" d="M116.231,23.13a.251.251,0,0,1,.283-.283h1.772a.244.244,0,0,1,.277.283v9.851a.248.248,0,0,1-.277.283H116.9a.436.436,0,0,1-.34-.145L111.2,26.879v6.1a.251.251,0,0,1-.283.283h-1.758c-.2,0-.3-.1-.3-.283V23.13c0-.188.1-.283.3-.283h1.323a.449.449,0,0,1,.348.154l5.4,6.377Z" transform="translate(76.969 16.154)" fill="#fff"/>
    <path id="Trazado_108" data-name="Trazado 108" d="M120.255,31.331h5.157c.189,0,.283.09.283.27V32.98a.25.25,0,0,1-.283.283h-7.2c-.2,0-.3-.094-.3-.283V23.129q0-.282.3-.282h1.758a.249.249,0,0,1,.283.282Z" transform="translate(83.368 16.154)" fill="#fff"/>
    <path id="Trazado_109" data-name="Trazado 109" d="M123.061,33.263c-.229,0-.3-.108-.225-.326l4.416-9.88a.313.313,0,0,1,.312-.21h1.745a.323.323,0,0,1,.326.21l4.387,9.88a.247.247,0,0,1,0,.236.227.227,0,0,1-.21.09h-1.89a.321.321,0,0,1-.326-.21l-.821-1.919h-4.686l-.8,1.919a.321.321,0,0,1-.326.21Zm3.82-4.046H130l-1.577-3.7Z" transform="translate(86.825 16.154)" fill="#fff"/>
    <path id="Trazado_110" data-name="Trazado 110" d="M130.393,33.263c-.2,0-.3-.094-.3-.283V23.129q0-.282.3-.282H135.3a4.2,4.2,0,0,1,2.593.736,2.337,2.337,0,0,1,.973,1.958,2.525,2.525,0,0,1-.406,1.424,2.239,2.239,0,0,1-1.169.888v.058a2.538,2.538,0,0,1,1.526.886,2.572,2.572,0,0,1,.558,1.671,2.388,2.388,0,0,1-1.057,2.03,4.712,4.712,0,0,1-2.822.766Zm2.042-6.087h2.405a2.13,2.13,0,0,0,1.318-.377,1.174,1.174,0,0,0,.5-.975.979.979,0,0,0-.437-.835,2.136,2.136,0,0,0-1.256-.312h-2.528Zm0,4.242h2.854a2.252,2.252,0,0,0,1.313-.341,1.055,1.055,0,0,0,.49-.908,1.087,1.087,0,0,0-.447-.908,1.918,1.918,0,0,0-1.195-.341h-3.015Z" transform="translate(91.979 16.154)" fill="#fff"/>
    <path id="Trazado_111" data-name="Trazado 111" d="M141.982,33.579a5.66,5.66,0,0,1-4.093-1.518,5.192,5.192,0,0,1-1.581-3.916,5.185,5.185,0,0,1,1.577-3.912,6.281,6.281,0,0,1,8.18,0,5.177,5.177,0,0,1,1.582,3.912,5.187,5.187,0,0,1-1.582,3.916,5.658,5.658,0,0,1-4.083,1.518M139.6,30.6a3.451,3.451,0,0,0,4.757,0,3.726,3.726,0,0,0,0-4.911,3.451,3.451,0,0,0-4.757,0,3.732,3.732,0,0,0,0,4.911" transform="translate(96.371 16.063)" fill="#fff"/>
    <path id="Trazado_112" data-name="Trazado 112" d="M153.355,32.937a.207.207,0,0,1,.051.229c-.034.065-.111.1-.232.1H151.03a.4.4,0,0,1-.341-.181l-2.557-3.2h-1.859V32.98a.25.25,0,0,1-.283.283h-1.758c-.2,0-.3-.094-.3-.283V23.13c0-.188.1-.283.3-.283h4.344a4.694,4.694,0,0,1,3.079.944,3.151,3.151,0,0,1,1.149,2.572,3.1,3.1,0,0,1-2.2,3.182ZM146.273,24.8v3.124h1.977a2.838,2.838,0,0,0,1.627-.411,1.315,1.315,0,0,0,.6-1.151,1.343,1.343,0,0,0-.577-1.137,2.537,2.537,0,0,0-1.536-.425Z" transform="translate(101.763 16.154)" fill="#fff"/>
    <path id="Trazado_113" data-name="Trazado 113" d="M149.977,33.263c-.229,0-.3-.108-.225-.326l4.416-9.88a.313.313,0,0,1,.312-.21h1.745a.323.323,0,0,1,.326.21l4.387,9.88a.247.247,0,0,1,0,.236.227.227,0,0,1-.21.09h-1.89a.321.321,0,0,1-.326-.21l-.821-1.919h-4.686l-.8,1.919a.321.321,0,0,1-.326.21Zm3.82-4.046h3.124l-1.577-3.7Z" transform="translate(105.855 16.154)" fill="#fff"/>
    <path id="Trazado_114" data-name="Trazado 114" d="M159.35,31.331h5.157c.189,0,.283.09.283.27V32.98a.25.25,0,0,1-.283.283h-7.2c-.2,0-.3-.094-.3-.283V23.129q0-.282.3-.282h1.758a.249.249,0,0,1,.283.282Z" transform="translate(111.008 16.154)" fill="#fff"/>
  </g>
</svg>
