<svg id="gavel" xmlns="http://www.w3.org/2000/svg" width="93.5" height="93.44" viewBox="0 0 93.5 93.44">
  <path id="gavel-2" data-name="gavel" d="M91.784,42.6a5.839,5.839,0,0,0-8.261,0l-.763.763L50.14,10.745l.763-.763A5.841,5.841,0,0,0,42.642,1.72L15.378,28.984a5.843,5.843,0,0,0,8.265,8.261l.884-.884L36.679,48.513,1.711,83.477a5.843,5.843,0,0,0,8.265,8.261l34.96-34.96L57.143,68.985l-.884.884a5.843,5.843,0,0,0,8.265,8.261L91.788,50.866a5.839,5.839,0,0,0,0-8.261ZM60.516,55.832l-22.9-22.9,9.094-9.094,22.9,22.9-9.094,9.094Z" transform="translate(0 -0.009)" fill="#b58f67"/>
</svg>
