<svg id="svg" version="1.1" xmlns="http://www.w3.org/2000/svg" xmlns:xlink="http://www.w3.org/1999/xlink" width="400" height="400" viewBox="0, 0, 400,400"><g id="svgg"><path id="path0" d="M108.594 226.075 C 108.484 226.364,108.440 242.710,108.497 262.400 L 108.600 298.200 117.700 298.308 L 126.800 298.415 126.806 285.708 C 126.809 278.718,126.944 272.793,127.106 272.540 C 127.308 272.224,130.227 272.023,136.400 271.900 C 143.012 271.769,145.996 271.551,147.647 271.080 C 170.199 264.637,170.435 233.269,147.982 226.514 C 145.007 225.620,108.921 225.217,108.594 226.075 M172.597 226.066 C 172.485 226.360,172.440 242.710,172.497 262.400 L 172.600 298.200 186.600 298.327 C 205.533 298.499,209.999 297.833,218.532 293.564 C 230.643 287.505,236.257 277.263,236.161 261.400 C 236.049 242.797,227.483 231.777,209.200 226.713 C 205.365 225.651,172.974 225.078,172.597 226.066 M246.184 226.100 C 246.079 226.375,246.040 242.710,246.097 262.400 L 246.200 298.200 255.295 298.307 L 264.390 298.415 264.495 283.707 L 264.600 269.000 277.800 268.800 L 291.000 268.600 291.109 260.900 L 291.217 253.200 278.027 253.200 L 264.836 253.200 264.598 251.900 C 264.467 251.185,264.414 248.530,264.480 246.000 L 264.600 241.400 281.100 241.296 L 297.600 241.191 297.600 233.396 L 297.600 225.600 271.987 225.600 C 251.866 225.600,246.334 225.707,246.184 226.100 M140.840 241.655 C 148.024 244.061,147.860 253.892,140.600 255.983 C 139.611 256.268,136.709 256.397,133.000 256.322 L 127.000 256.200 126.890 249.214 C 126.830 245.372,126.869 241.997,126.978 241.714 C 127.236 241.041,138.858 240.991,140.840 241.655 M201.680 241.625 C 212.348 243.767,218.000 250.798,218.000 261.926 C 218.000 271.266,214.174 277.635,206.751 280.651 C 201.872 282.634,191.207 283.638,190.643 282.167 C 190.310 281.301,190.333 241.800,190.667 241.467 C 191.093 241.040,199.357 241.159,201.680 241.625 " stroke="none" fill="#fafaf9" fill-rule="evenodd"></path><path id="path1" d="M236.800 59.200 L 236.800 116.800 293.500 116.787 C 349.935 116.773,350.196 116.770,349.256 115.987 C 348.736 115.554,348.449 115.200,348.617 115.200 C 348.785 115.200,348.490 114.843,347.961 114.407 C 346.098 112.871,345.984 112.750,346.149 112.476 C 346.241 112.324,346.065 111.968,345.758 111.684 C 345.451 111.401,345.200 111.261,345.200 111.373 C 345.200 111.486,344.233 110.638,343.051 109.489 C 341.869 108.340,340.980 107.265,341.075 107.100 C 341.170 106.935,341.056 106.800,340.823 106.800 C 340.353 106.800,337.200 103.582,337.200 103.102 C 337.200 102.936,336.900 102.800,336.533 102.800 C 336.167 102.800,335.967 102.699,336.090 102.576 C 336.214 102.453,335.434 101.472,334.357 100.395 C 333.281 99.319,332.400 98.262,332.400 98.046 C 332.400 97.830,332.059 97.546,331.643 97.414 C 331.227 97.282,330.790 96.806,330.673 96.357 C 330.555 95.908,330.086 95.443,329.630 95.324 C 329.173 95.204,328.800 94.858,328.800 94.553 C 328.800 94.249,328.530 94.000,328.200 94.000 C 327.870 94.000,327.645 93.860,327.700 93.689 C 327.824 93.303,324.928 90.364,324.507 90.448 C 324.338 90.482,323.990 90.099,323.734 89.597 C 323.478 89.095,322.775 88.260,322.172 87.742 C 321.569 87.224,321.178 86.800,321.303 86.800 C 321.428 86.800,320.532 85.810,319.313 84.600 C 318.093 83.390,317.048 82.400,316.990 82.400 C 316.783 82.400,314.400 80.075,314.400 79.874 C 314.400 79.761,313.770 79.020,313.000 78.227 C 312.230 77.434,311.599 76.924,311.597 77.093 C 311.596 77.262,311.267 76.904,310.867 76.297 C 310.467 75.690,310.063 75.261,309.970 75.343 C 309.876 75.426,309.389 75.067,308.886 74.546 C 308.337 73.978,308.177 73.597,308.486 73.593 C 308.769 73.590,308.415 73.212,307.700 72.754 C 306.985 72.296,306.400 71.674,306.400 71.371 C 306.400 71.068,305.860 70.541,305.200 70.200 C 304.540 69.859,304.000 69.483,304.000 69.366 C 304.000 69.249,304.178 69.263,304.395 69.397 C 304.620 69.536,304.690 69.379,304.557 69.033 C 304.429 68.699,304.206 68.465,304.062 68.513 C 303.781 68.606,300.400 65.346,300.400 64.982 C 300.400 64.577,298.440 62.800,297.995 62.800 C 297.752 62.800,297.635 62.665,297.734 62.500 C 297.834 62.335,297.665 61.968,297.358 61.684 C 297.051 61.401,296.800 61.279,296.800 61.414 C 296.800 61.550,295.733 60.567,294.429 59.230 C 293.126 57.894,291.731 56.797,291.329 56.794 C 290.793 56.789,290.737 56.701,291.119 56.459 C 291.527 56.200,291.489 56.009,290.942 55.565 C 290.349 55.083,290.296 55.083,290.585 55.562 C 290.810 55.935,290.774 56.031,290.479 55.849 C 290.235 55.698,290.136 55.310,290.260 54.987 C 290.384 54.664,290.296 54.400,290.063 54.400 C 289.831 54.400,289.156 53.950,288.562 53.400 C 287.969 52.850,287.627 52.400,287.803 52.400 C 288.288 52.400,286.403 50.855,285.611 50.604 C 285.229 50.482,284.503 49.577,283.996 48.592 C 283.352 47.340,282.822 46.798,282.237 46.794 C 281.732 46.790,281.581 46.671,281.856 46.494 C 282.186 46.281,282.158 46.058,281.756 45.684 C 281.354 45.311,281.200 45.299,281.200 45.640 C 281.200 45.899,280.740 45.433,280.177 44.604 C 278.945 42.788,278.137 41.947,277.714 42.041 C 277.541 42.079,277.204 41.727,276.964 41.257 C 276.725 40.788,276.424 40.509,276.296 40.637 C 276.168 40.765,275.759 40.404,275.386 39.835 C 275.013 39.266,274.439 38.800,274.111 38.800 C 273.727 38.800,273.602 38.571,273.762 38.155 C 273.922 37.737,273.832 37.576,273.505 37.697 C 273.227 37.800,272.550 37.427,272.000 36.869 C 271.450 36.310,271.319 36.092,271.709 36.383 C 272.322 36.841,272.384 36.824,272.166 36.257 C 272.028 35.895,271.664 35.600,271.357 35.600 C 271.051 35.600,270.797 35.285,270.794 34.900 C 270.790 34.449,270.683 34.364,270.494 34.661 C 270.299 34.967,269.591 34.523,268.400 33.351 C 266.898 31.872,266.699 31.510,267.200 31.163 C 267.679 30.831,267.634 30.794,266.975 30.977 C 266.148 31.207,264.400 29.711,264.400 28.773 C 264.400 28.542,264.246 28.448,264.058 28.564 C 263.279 29.046,261.845 26.871,262.441 26.112 C 262.950 25.464,262.937 25.449,262.300 25.949 C 261.464 26.605,260.216 25.856,260.577 24.915 C 260.698 24.601,260.613 24.468,260.384 24.610 C 260.161 24.748,259.424 24.268,258.748 23.544 C 258.038 22.784,257.711 22.163,257.976 22.075 C 258.601 21.866,257.715 20.800,256.916 20.800 C 256.593 20.800,252.011 16.480,246.734 11.200 C 241.457 5.920,237.063 1.600,236.970 1.600 C 236.876 1.600,236.800 27.520,236.800 59.200 M108.243 225.833 C 107.889 226.756,107.945 297.919,108.300 298.138 C 108.465 298.240,108.600 282.006,108.600 262.062 L 108.600 225.800 125.600 225.593 L 142.600 225.387 125.543 225.293 C 110.303 225.210,108.460 225.267,108.243 225.833 M172.400 225.500 C 172.399 225.773,183.410 225.767,196.600 225.486 C 199.460 225.425,195.185 225.335,187.100 225.287 C 179.015 225.239,172.400 225.335,172.400 225.500 M246.000 225.497 C 246.000 225.664,257.610 225.752,271.800 225.694 L 297.600 225.588 297.600 233.390 L 297.600 241.191 281.100 241.296 L 264.600 241.400 264.582 246.701 L 264.564 252.001 264.693 246.805 L 264.823 241.609 281.312 241.504 L 297.800 241.400 297.800 233.400 L 297.800 225.400 271.900 225.297 C 257.655 225.240,246.000 225.330,246.000 225.497 M143.633 225.745 C 143.725 225.825,144.601 225.992,145.579 226.118 C 146.730 226.265,147.154 226.216,146.779 225.979 C 146.245 225.640,143.258 225.419,143.633 225.745 M203.900 225.882 C 204.395 225.978,205.205 225.978,205.700 225.882 C 206.195 225.787,205.790 225.709,204.800 225.709 C 203.810 225.709,203.405 225.787,203.900 225.882 M158.415 232.566 C 159.413 233.685,160.643 235.275,161.148 236.100 C 162.261 237.921,162.736 238.111,161.723 236.330 C 161.325 235.632,160.010 234.041,158.800 232.796 C 156.853 230.792,156.809 230.766,158.415 232.566 M229.283 238.810 C 230.007 239.806,230.923 241.066,231.317 241.610 C 232.007 242.562,232.007 242.549,231.317 241.261 C 230.923 240.524,230.007 239.264,229.283 238.461 L 227.966 237.000 229.283 238.810 M126.978 241.714 C 126.869 241.997,126.830 245.372,126.890 249.214 L 127.000 256.200 133.500 256.215 L 140.001 256.231 133.600 256.105 L 127.200 255.980 127.200 248.800 L 127.200 241.620 133.700 241.499 L 140.200 241.379 133.687 241.289 C 128.686 241.221,127.129 241.319,126.978 241.714 M190.583 241.700 C 190.478 241.975,190.440 251.200,190.500 262.200 L 190.608 282.200 190.704 261.912 L 190.800 241.625 195.700 241.499 L 200.600 241.373 195.687 241.286 C 192.060 241.223,190.725 241.331,190.583 241.700 M164.509 246.800 C 164.509 247.790,164.587 248.195,164.682 247.700 C 164.778 247.205,164.778 246.395,164.682 245.900 C 164.587 245.405,164.509 245.810,164.509 246.800 M212.400 247.000 C 213.146 247.770,213.847 248.400,213.957 248.400 C 214.067 248.400,213.546 247.770,212.800 247.000 C 212.054 246.230,211.353 245.600,211.243 245.600 C 211.133 245.600,211.654 246.230,212.400 247.000 M164.467 250.450 C 164.430 251.248,164.311 252.507,164.201 253.250 L 164.003 254.600 164.423 253.260 C 164.654 252.523,164.774 251.263,164.689 250.460 L 164.534 249.000 164.467 250.450 M145.200 251.903 C 145.200 252.142,144.711 252.937,144.114 253.669 C 143.221 254.764,143.192 254.859,143.951 254.204 C 145.029 253.275,145.765 252.031,145.432 251.699 C 145.305 251.571,145.200 251.663,145.200 251.903 M235.444 252.600 C 235.773 254.071,236.002 254.390,235.994 253.367 C 235.991 252.945,235.805 252.330,235.582 252.000 C 235.285 251.562,235.248 251.724,235.444 252.600 M271.325 253.099 C 275.024 253.166,280.964 253.165,284.525 253.099 C 288.086 253.033,285.060 252.979,277.800 252.979 C 270.540 252.979,267.626 253.033,271.325 253.099 M291.199 261.081 C 291.090 265.305,291.139 268.622,291.309 268.452 C 291.479 268.281,291.569 264.825,291.508 260.771 L 291.398 253.400 291.199 261.081 M236.302 260.400 C 236.391 262.930,236.526 265.180,236.601 265.400 C 236.870 266.190,236.699 258.173,236.422 257.000 C 236.266 256.340,236.212 257.870,236.302 260.400 M217.400 261.741 C 217.400 264.766,217.517 266.826,217.660 266.320 C 217.991 265.150,217.986 258.975,217.653 257.420 C 217.514 256.772,217.400 258.716,217.400 261.741 M157.400 265.877 C 155.968 267.214,155.645 267.625,156.600 266.898 C 158.109 265.749,160.339 263.578,159.970 263.618 C 159.876 263.628,158.720 264.645,157.400 265.877 M264.581 283.800 C 264.581 291.940,264.634 295.213,264.700 291.074 C 264.765 286.934,264.765 280.274,264.699 276.274 C 264.634 272.273,264.581 275.660,264.581 283.800 M235.450 270.850 C 235.309 271.553,235.269 272.202,235.359 272.292 C 235.450 272.383,235.648 271.891,235.800 271.200 C 235.952 270.509,235.993 269.859,235.891 269.758 C 235.789 269.656,235.591 270.147,235.450 270.850 M144.800 271.600 C 143.433 271.888,143.428 271.895,144.600 271.919 C 145.260 271.933,146.160 271.789,146.600 271.600 C 147.562 271.187,146.764 271.187,144.800 271.600 M127.043 272.633 C 126.909 272.981,126.841 278.966,126.892 285.933 L 126.983 298.600 127.192 285.600 L 127.400 272.600 134.200 272.385 L 141.000 272.171 134.143 272.085 C 128.208 272.011,127.253 272.085,127.043 272.633 M212.678 276.613 C 212.060 277.156,211.714 277.600,211.908 277.600 C 212.102 277.600,212.683 277.150,213.200 276.600 C 214.395 275.328,214.131 275.334,212.678 276.613 M192.700 282.695 C 193.855 282.776,195.745 282.776,196.900 282.695 C 198.055 282.614,197.110 282.548,194.800 282.548 C 192.490 282.548,191.545 282.614,192.700 282.695 M227.220 287.379 L 225.440 289.400 227.401 287.514 C 228.479 286.477,229.280 285.567,229.181 285.493 C 229.081 285.419,228.199 286.267,227.220 287.379 M215.000 295.229 C 214.120 295.652,213.850 295.886,214.400 295.749 C 215.533 295.467,217.612 294.425,217.000 294.446 C 216.780 294.453,215.880 294.806,215.000 295.229 M208.600 297.200 C 208.096 297.417,208.022 297.544,208.400 297.544 C 208.730 297.544,209.360 297.389,209.800 297.200 C 210.304 296.983,210.378 296.856,210.000 296.856 C 209.670 296.856,209.040 297.011,208.600 297.200 " stroke="none" fill="#d4ac85" fill-rule="evenodd"></path><path id="path2" d="M91.490 0.294 C 90.428 0.378,89.684 0.612,89.814 0.822 C 89.948 1.039,89.227 1.203,88.124 1.206 C 86.734 1.211,86.367 1.320,86.800 1.600 C 87.255 1.894,87.086 1.989,86.100 1.994 C 85.333 1.997,84.797 2.205,84.794 2.500 C 84.790 2.833,84.658 2.800,84.400 2.400 C 84.142 2.000,84.010 1.967,84.006 2.300 C 84.003 2.575,83.539 2.800,82.976 2.800 C 82.396 2.800,82.060 2.973,82.200 3.200 C 82.344 3.433,81.937 3.600,81.224 3.600 C 80.551 3.600,80.000 3.780,80.000 4.000 C 80.000 4.220,79.745 4.400,79.433 4.400 C 79.122 4.400,78.807 4.535,78.733 4.700 C 78.660 4.865,77.745 5.433,76.700 5.963 C 75.655 6.492,74.800 7.046,74.800 7.193 C 74.800 7.340,73.720 7.987,72.401 8.630 C 71.081 9.274,70.001 10.036,70.001 10.324 C 70.000 10.612,69.853 10.756,69.673 10.645 C 69.493 10.534,69.093 10.793,68.785 11.221 C 68.476 11.650,67.993 12.000,67.712 12.000 C 67.430 12.000,67.200 12.180,67.200 12.400 C 67.200 12.620,67.012 12.800,66.782 12.800 C 66.226 12.800,64.400 14.645,64.400 15.205 C 64.400 15.448,64.220 15.536,64.000 15.400 C 63.780 15.264,63.600 15.444,63.600 15.800 C 63.600 16.156,63.420 16.336,63.200 16.200 C 62.980 16.064,62.800 16.279,62.800 16.678 C 62.800 17.076,62.254 17.918,61.586 18.549 C 60.918 19.179,60.081 20.258,59.727 20.947 C 59.372 21.636,58.748 22.491,58.341 22.847 C 57.933 23.203,57.600 23.788,57.600 24.147 C 57.600 24.506,57.465 24.801,57.300 24.801 C 57.135 24.802,56.550 25.792,56.000 27.000 C 55.450 28.208,54.865 29.198,54.700 29.199 C 54.535 29.199,54.400 29.560,54.400 30.000 C 54.400 30.440,54.220 30.800,54.000 30.800 C 53.780 30.800,53.600 31.250,53.600 31.800 C 53.600 32.350,53.420 32.800,53.200 32.800 C 52.980 32.800,52.800 33.239,52.800 33.776 C 52.800 34.313,52.620 34.864,52.400 35.000 C 52.180 35.136,52.000 35.766,52.000 36.400 C 52.000 37.034,51.820 37.664,51.600 37.800 C 51.380 37.936,51.200 38.566,51.200 39.200 C 51.200 39.834,51.020 40.464,50.800 40.600 C 50.580 40.736,50.400 41.917,50.400 43.224 C 50.400 44.537,50.222 45.600,50.001 45.600 C 49.736 45.600,49.602 97.597,49.602 200.000 C 49.602 302.399,49.736 354.400,50.001 354.400 C 50.220 354.400,50.400 355.289,50.400 356.376 C 50.400 357.463,50.580 358.464,50.800 358.600 C 51.020 358.736,51.200 359.521,51.200 360.344 C 51.200 361.167,51.369 362.011,51.575 362.220 C 51.782 362.429,52.015 363.088,52.094 363.685 C 52.172 364.282,52.363 364.897,52.518 365.052 C 52.673 365.207,52.800 365.753,52.800 366.267 C 52.800 366.780,52.980 367.200,53.200 367.200 C 53.420 367.200,53.600 367.549,53.600 367.976 C 53.600 368.403,53.780 368.864,54.000 369.000 C 54.220 369.136,54.400 369.597,54.400 370.024 C 54.400 370.451,54.580 370.800,54.800 370.800 C 55.020 370.800,55.200 371.055,55.200 371.367 C 55.200 371.678,55.335 371.993,55.500 372.067 C 55.927 372.256,57.822 376.109,57.690 376.519 C 57.630 376.706,57.765 376.745,57.990 376.606 C 58.216 376.467,58.400 376.556,58.400 376.805 C 58.400 377.054,58.625 377.508,58.900 377.815 C 59.918 378.950,60.247 379.410,60.318 379.800 C 60.358 380.020,60.816 380.650,61.335 381.200 C 61.854 381.750,62.341 382.380,62.417 382.600 C 62.650 383.274,63.383 383.926,63.695 383.737 C 63.858 383.639,63.872 383.867,63.727 384.245 C 63.549 384.711,63.615 384.838,63.932 384.642 C 64.213 384.468,64.400 384.602,64.400 384.976 C 64.400 385.319,64.681 385.600,65.024 385.600 C 65.367 385.600,65.536 385.780,65.400 386.000 C 65.264 386.220,65.444 386.400,65.800 386.400 C 66.156 386.400,66.336 386.580,66.200 386.800 C 66.064 387.020,66.233 387.200,66.576 387.200 C 66.919 387.200,67.200 387.380,67.200 387.600 C 67.200 387.820,67.430 388.000,67.712 388.000 C 67.993 388.000,68.476 388.350,68.785 388.779 C 69.093 389.207,69.493 389.466,69.673 389.355 C 69.853 389.244,70.000 389.399,70.000 389.699 C 70.000 390.000,70.720 390.564,71.600 390.952 C 72.480 391.340,73.200 391.825,73.200 392.029 C 73.200 392.233,73.478 392.400,73.817 392.400 C 74.156 392.400,74.820 392.760,75.292 393.200 C 75.764 393.640,76.656 394.224,77.275 394.497 C 77.894 394.771,78.400 395.131,78.400 395.298 C 78.400 395.464,78.760 395.600,79.200 395.600 C 79.640 395.600,80.000 395.780,80.000 396.000 C 80.000 396.220,80.529 396.400,81.176 396.400 C 81.823 396.400,82.464 396.580,82.600 396.800 C 82.736 397.020,83.197 397.200,83.624 397.200 C 84.051 397.200,84.400 397.342,84.400 397.515 C 84.400 397.688,84.802 397.860,85.294 397.897 C 85.786 397.934,86.251 398.152,86.327 398.382 C 86.404 398.612,87.157 398.800,88.000 398.800 C 88.871 398.800,89.605 399.016,89.700 399.300 C 89.833 399.698,111.623 399.825,196.433 399.923 C 298.904 400.042,310.672 399.963,310.177 399.163 C 310.054 398.963,310.818 398.797,311.876 398.794 C 313.266 398.789,313.633 398.680,313.200 398.400 C 312.761 398.116,313.063 398.011,314.324 398.006 C 315.369 398.002,315.950 397.843,315.800 397.600 C 315.655 397.366,316.070 397.200,316.800 397.200 C 317.530 397.200,317.945 397.034,317.800 396.800 C 317.656 396.567,318.063 396.400,318.776 396.400 C 319.449 396.400,320.000 396.220,320.000 396.000 C 320.000 395.780,320.255 395.600,320.567 395.600 C 320.878 395.600,321.196 395.412,321.273 395.182 C 321.349 394.952,321.802 394.735,322.278 394.699 C 322.755 394.663,323.056 394.491,322.949 394.317 C 322.841 394.143,322.988 394.000,323.276 394.000 C 323.564 393.999,324.279 393.587,324.864 393.084 C 325.450 392.580,326.838 391.726,327.949 391.184 C 329.060 390.643,329.976 389.987,329.984 389.727 C 329.993 389.467,330.360 389.140,330.800 389.000 C 331.240 388.860,331.600 388.600,331.600 388.422 C 331.600 388.243,332.138 387.874,332.795 387.602 C 333.452 387.330,333.891 386.948,333.771 386.754 C 333.651 386.559,333.752 386.400,333.995 386.400 C 334.238 386.400,334.886 385.950,335.436 385.400 C 335.986 384.850,336.330 384.400,336.200 384.400 C 336.070 384.400,336.377 383.959,336.882 383.419 C 338.377 381.822,338.800 381.256,338.800 380.850 C 338.800 380.639,338.935 380.407,339.100 380.333 C 339.599 380.112,341.600 377.286,341.600 376.803 C 341.600 376.555,341.743 376.441,341.917 376.549 C 342.091 376.656,342.263 376.352,342.299 375.872 C 342.335 375.393,342.696 374.730,343.103 374.400 C 343.509 374.070,343.882 373.620,343.932 373.400 C 344.140 372.471,345.018 370.800,345.298 370.800 C 345.464 370.800,345.600 370.451,345.600 370.024 C 345.600 369.597,345.780 369.136,346.000 369.000 C 346.220 368.864,346.400 368.313,346.400 367.776 C 346.400 367.239,346.580 366.800,346.800 366.800 C 347.020 366.800,347.200 366.451,347.200 366.024 C 347.200 365.597,347.380 365.136,347.600 365.000 C 347.820 364.864,348.000 364.324,348.000 363.800 C 348.000 363.276,348.180 362.736,348.400 362.600 C 348.620 362.464,348.800 361.744,348.800 361.000 C 348.800 360.256,348.949 359.555,349.131 359.443 C 349.313 359.330,349.503 358.195,349.553 356.919 C 349.604 355.644,349.813 354.540,350.020 354.468 C 350.643 354.247,350.525 118.128,349.901 117.724 C 349.626 117.546,323.885 117.353,292.700 117.295 L 236.000 117.189 236.000 58.595 L 236.000 0.000 164.700 0.072 C 125.485 0.112,92.541 0.212,91.490 0.294 M145.800 225.391 C 146.900 225.549,147.971 225.840,148.180 226.039 C 148.389 226.237,148.886 226.400,149.285 226.400 C 149.684 226.400,150.323 226.559,150.705 226.753 C 151.087 226.948,151.940 227.347,152.600 227.641 C 156.430 229.347,162.800 235.552,162.800 237.577 C 162.800 237.816,162.959 238.323,163.153 238.705 C 164.683 241.713,164.940 243.144,164.929 248.600 C 164.920 253.249,164.695 255.332,164.023 257.000 C 163.241 258.944,161.774 261.812,161.500 261.933 C 161.335 262.007,161.200 262.286,161.200 262.554 C 161.200 263.350,157.587 266.826,155.064 268.457 C 150.030 271.710,146.759 272.415,135.506 272.668 L 127.611 272.847 127.506 285.723 L 127.400 298.600 117.600 298.600 L 107.800 298.600 107.697 262.200 C 107.640 242.180,107.681 225.571,107.787 225.292 C 108.000 224.735,141.837 224.823,145.800 225.391 M205.800 225.396 C 207.120 225.547,208.371 225.835,208.580 226.035 C 208.789 226.236,209.316 226.400,209.752 226.400 C 213.844 226.400,222.968 231.382,227.893 236.306 C 229.492 237.905,230.800 239.480,230.800 239.806 C 230.800 240.133,230.959 240.400,231.152 240.400 C 231.557 240.400,234.237 245.677,234.843 247.667 C 238.177 258.612,237.675 270.282,233.471 279.600 C 232.035 282.782,225.925 290.400,224.808 290.400 C 224.652 290.400,224.001 290.850,223.362 291.400 C 222.723 291.949,221.975 292.399,221.700 292.400 C 221.425 292.400,221.200 292.580,221.200 292.800 C 221.200 293.020,220.930 293.200,220.600 293.200 C 220.270 293.200,220.000 293.336,220.000 293.502 C 220.000 293.669,219.415 294.042,218.700 294.333 C 217.985 294.623,216.708 295.207,215.862 295.630 C 215.016 296.054,213.992 296.400,213.586 296.400 C 213.180 296.400,212.749 296.559,212.629 296.754 C 212.508 296.949,211.823 297.225,211.105 297.369 C 210.387 297.513,208.900 297.833,207.800 298.080 C 206.505 298.372,199.812 298.542,188.800 298.565 L 171.800 298.600 171.690 262.600 C 171.630 242.800,171.679 226.191,171.800 225.691 L 172.020 224.782 187.710 224.952 C 196.339 225.045,204.480 225.245,205.800 225.396 M298.386 225.574 C 298.827 226.398,298.964 239.149,298.548 240.700 L 298.307 241.600 281.753 241.600 L 265.200 241.600 265.200 246.995 L 265.200 252.389 278.300 252.495 L 291.400 252.600 291.400 260.800 L 291.400 269.000 278.305 269.105 L 265.210 269.211 265.105 283.905 L 265.000 298.600 255.200 298.600 L 245.400 298.600 245.298 262.244 C 245.223 235.713,245.318 225.740,245.647 225.344 C 246.483 224.337,297.844 224.561,298.386 225.574 M127.600 248.821 L 127.600 256.041 133.300 255.865 C 139.340 255.679,142.000 255.340,142.000 254.756 C 142.000 254.560,142.261 254.400,142.580 254.400 C 144.257 254.400,145.832 250.189,145.329 247.046 C 145.021 245.119,142.502 242.400,141.024 242.400 C 140.487 242.400,139.936 242.220,139.800 242.000 C 139.653 241.762,137.129 241.600,133.576 241.600 L 127.600 241.600 127.600 248.821 M190.896 261.676 L 191.000 281.800 196.257 281.730 C 210.646 281.538,216.987 275.431,216.952 261.800 C 216.924 251.083,214.019 246.749,204.200 242.770 C 202.956 242.266,200.203 241.948,195.296 241.741 L 190.793 241.551 190.896 261.676 " stroke="none" fill="#C04F15" fill-rule="evenodd"></path><path id="path3" d="M349.248 115.800 C 349.604 116.240,349.995 116.870,350.116 117.200 C 350.303 117.709,350.342 117.704,350.368 117.162 C 350.386 116.811,349.995 116.181,349.500 115.762 C 348.608 115.006,348.606 115.007,349.248 115.800 M117.127 225.100 C 121.817 225.164,129.377 225.164,133.927 225.099 C 138.477 225.035,134.640 224.983,125.400 224.983 C 116.160 224.983,112.437 225.036,117.127 225.100 M179.926 225.100 C 183.955 225.165,190.435 225.165,194.326 225.099 C 198.217 225.034,194.920 224.980,187.000 224.981 C 179.080 224.981,175.897 225.034,179.926 225.100 M271.800 225.196 L 297.800 225.400 297.800 233.462 C 297.800 237.896,297.935 241.441,298.100 241.338 C 298.629 241.011,298.459 225.819,297.920 225.280 C 297.555 224.915,291.277 224.823,271.620 224.896 L 245.800 224.991 271.800 225.196 M172.197 262.100 L 172.200 298.600 187.900 298.607 L 203.600 298.614 188.002 298.502 L 172.404 298.391 172.299 261.995 L 172.194 225.600 172.197 262.100 M245.797 262.100 L 245.800 298.600 255.100 298.611 L 264.400 298.623 255.202 298.504 L 246.004 298.385 245.899 261.993 L 245.794 225.600 245.797 262.100 M224.800 233.725 C 224.800 233.794,225.385 234.379,226.100 235.025 L 227.400 236.200 226.225 234.900 C 225.130 233.688,224.800 233.416,224.800 233.725 M227.600 236.525 C 227.600 236.594,228.185 237.179,228.900 237.825 L 230.200 239.000 229.025 237.700 C 227.930 236.488,227.600 236.216,227.600 236.525 M127.366 248.800 C 127.366 252.870,127.425 254.535,127.498 252.500 C 127.571 250.465,127.571 247.135,127.498 245.100 C 127.425 243.065,127.366 244.730,127.366 248.800 M264.959 247.200 C 264.959 250.390,265.021 251.695,265.097 250.100 C 265.173 248.505,265.173 245.895,265.097 244.300 C 265.021 242.705,264.959 244.010,264.959 247.200 M212.200 247.200 C 213.059 248.080,213.852 248.800,213.962 248.800 C 214.072 248.800,213.459 248.080,212.600 247.200 C 211.741 246.320,210.948 245.600,210.838 245.600 C 210.728 245.600,211.341 246.320,212.200 247.200 M164.928 248.800 C 164.928 250.230,165.001 250.815,165.089 250.100 C 165.178 249.385,165.178 248.215,165.089 247.500 C 165.001 246.785,164.928 247.370,164.928 248.800 M217.293 264.400 C 217.293 265.170,217.375 265.485,217.476 265.100 C 217.576 264.715,217.576 264.085,217.476 263.700 C 217.375 263.315,217.293 263.630,217.293 264.400 M264.981 283.400 C 264.981 291.540,265.034 294.813,265.100 290.674 C 265.165 286.534,265.165 279.874,265.099 275.874 C 265.034 271.873,264.981 275.260,264.981 283.400 M141.300 272.276 C 141.685 272.376,142.315 272.376,142.700 272.276 C 143.085 272.175,142.770 272.093,142.000 272.093 C 141.230 272.093,140.915 272.175,141.300 272.276 M127.382 272.904 C 127.275 273.181,127.239 278.986,127.300 285.804 L 127.412 298.200 127.506 285.510 L 127.600 272.820 134.100 272.699 L 140.600 272.579 134.087 272.489 C 129.152 272.422,127.528 272.522,127.382 272.904 M192.915 282.296 C 194.188 282.376,196.168 282.375,197.315 282.294 C 198.462 282.214,197.420 282.149,195.000 282.150 C 192.580 282.151,191.642 282.216,192.915 282.296 M227.381 287.700 L 225.800 289.400 227.500 287.819 C 229.081 286.348,229.384 286.000,229.081 286.000 C 229.016 286.000,228.251 286.765,227.381 287.700 M108.347 298.508 C 108.517 298.677,112.783 298.767,117.828 298.707 L 127.000 298.599 117.519 298.399 C 112.305 298.290,108.177 298.338,108.347 298.508 " stroke="none" fill="#c5a68e" fill-rule="evenodd"></path><path id="path4" d="M236.000 58.600 L 236.000 117.200 291.903 117.200 C 324.354 117.200,348.339 117.353,349.076 117.565 C 350.106 117.860,350.306 117.822,350.131 117.365 C 349.946 116.882,341.684 116.800,293.357 116.800 L 236.800 116.800 236.800 59.200 C 236.800 27.520,236.876 1.600,236.970 1.600 C 237.063 1.600,241.457 5.920,246.734 11.200 C 252.011 16.480,256.441 20.800,256.579 20.800 C 257.315 20.800,255.185 18.400,247.884 11.002 C 243.438 6.497,239.260 2.182,238.600 1.413 C 235.782 -1.867,236.000 -6.673,236.000 58.600 M257.600 22.168 C 257.600 22.591,263.680 28.589,264.018 28.500 C 264.228 28.445,264.400 28.600,264.400 28.844 C 264.400 29.088,265.750 30.651,267.400 32.317 C 269.220 34.155,270.400 35.088,270.400 34.689 C 270.400 34.327,270.127 33.799,269.793 33.516 C 267.873 31.885,263.600 27.453,263.600 27.092 C 263.600 26.858,263.486 26.781,263.347 26.920 C 263.207 27.059,261.985 26.009,260.631 24.587 C 258.449 22.295,257.600 21.617,257.600 22.168 M272.000 36.875 C 273.001 37.898,274.030 38.034,273.096 37.019 C 272.823 36.723,272.527 36.551,272.437 36.637 C 272.347 36.723,271.987 36.582,271.637 36.323 C 271.287 36.065,271.450 36.313,272.000 36.875 M284.488 49.592 C 284.760 50.028,285.252 50.488,285.582 50.614 C 285.912 50.741,285.749 50.384,285.221 49.822 C 284.069 48.597,283.817 48.517,284.488 49.592 M107.867 225.067 C 107.496 225.437,107.529 298.309,107.900 298.538 C 108.065 298.640,108.153 282.238,108.096 262.088 C 108.013 232.963,108.095 225.387,108.496 225.132 C 108.792 224.945,108.821 224.810,108.567 224.806 C 108.328 224.803,108.013 224.920,107.867 225.067 M142.033 224.944 C 142.125 225.023,142.740 225.208,143.400 225.356 C 144.276 225.552,144.438 225.515,144.000 225.218 C 143.460 224.853,141.632 224.598,142.033 224.944 M171.843 225.433 C 171.489 226.356,171.545 298.319,171.900 298.538 C 172.065 298.640,172.153 282.337,172.096 262.308 C 172.019 235.633,172.113 225.746,172.445 225.346 C 172.726 225.007,172.744 224.800,172.492 224.800 C 172.268 224.800,171.976 225.085,171.843 225.433 M201.233 224.943 C 201.325 225.021,202.030 225.201,202.800 225.342 C 203.785 225.523,204.022 225.482,203.600 225.206 C 203.058 224.850,200.837 224.603,201.233 224.943 M245.467 225.467 C 245.096 225.837,245.129 298.309,245.500 298.538 C 245.665 298.640,245.800 282.181,245.800 261.962 C 245.800 241.743,245.785 225.200,245.767 225.200 C 245.748 225.200,245.613 225.320,245.467 225.467 M298.566 233.200 C 298.566 237.270,298.625 238.935,298.698 236.900 C 298.771 234.865,298.771 231.535,298.698 229.500 C 298.625 227.465,298.566 229.130,298.566 233.200 M164.668 244.600 C 164.971 246.577,165.202 246.914,165.194 245.367 C 165.191 244.725,165.016 243.930,164.805 243.600 C 164.545 243.191,164.501 243.510,164.668 244.600 M236.093 253.600 C 236.093 254.370,236.175 254.685,236.276 254.300 C 236.376 253.915,236.376 253.285,236.276 252.900 C 236.175 252.515,236.093 252.830,236.093 253.600 M269.600 252.684 C 281.167 252.966,291.508 252.973,291.339 252.700 C 291.236 252.535,285.268 252.439,278.076 252.486 C 270.884 252.533,267.070 252.622,269.600 252.684 M216.893 258.000 C 216.893 258.770,216.975 259.085,217.076 258.700 C 217.176 258.315,217.176 257.685,217.076 257.300 C 216.975 256.915,216.893 257.230,216.893 258.000 M236.924 262.200 C 236.926 263.520,237.001 264.012,237.090 263.293 C 237.179 262.574,237.177 261.494,237.086 260.893 C 236.995 260.292,236.922 260.880,236.924 262.200 M217.301 261.800 C 217.305 262.680,217.387 262.993,217.483 262.495 C 217.579 261.998,217.575 261.278,217.475 260.895 C 217.375 260.513,217.296 260.920,217.301 261.800 M216.893 266.000 C 216.893 266.770,216.975 267.085,217.076 266.700 C 217.176 266.315,217.176 265.685,217.076 265.300 C 216.975 264.915,216.893 265.230,216.893 266.000 M271.725 269.099 C 275.424 269.166,281.364 269.165,284.925 269.099 C 288.486 269.033,285.460 268.979,278.200 268.979 C 270.940 268.979,268.026 269.033,271.725 269.099 M140.900 272.676 C 141.285 272.776,141.915 272.776,142.300 272.676 C 142.685 272.575,142.370 272.493,141.600 272.493 C 140.830 272.493,140.515 272.575,140.900 272.676 M199.100 281.882 C 199.595 281.978,200.405 281.978,200.900 281.882 C 201.395 281.787,200.990 281.709,200.000 281.709 C 199.010 281.709,198.605 281.787,199.100 281.882 " stroke="none" fill="#caa47d" fill-rule="evenodd"></path></g></svg>