<svg id="_01_align_center" xmlns="http://www.w3.org/2000/svg" width="33.822" height="40.386" viewBox="0 0 33.822 40.386">
  <path id="Trazado_115" data-name="Trazado 115" d="M57.636,40.584l-1.173-1.006c-1.617-1.354-15.738-13.549-15.738-22.469a16.911,16.911,0,0,1,33.822,0c0,8.92-14.121,21.115-15.731,22.476Zm0-36.729A13.269,13.269,0,0,0,44.382,17.109c0,5.6,8.687,14.556,13.254,18.654C62.2,31.663,70.89,22.706,70.89,17.109A13.269,13.269,0,0,0,57.636,3.855Z" transform="translate(-40.725 -0.198)" fill="#b58f67"/>
  <path id="Trazado_116" data-name="Trazado 116" d="M176.829,143.006a6.7,6.7,0,1,1,6.7-6.7A6.7,6.7,0,0,1,176.829,143.006Zm0-10.055a3.352,3.352,0,1,0,3.352,3.352A3.352,3.352,0,0,0,176.829,132.951Z" transform="translate(-159.918 -119.392)" fill="#b58f67"/>
</svg>
